<svg id="Capa_1" data-name="Capa 1" xmlns="http://www.w3.org/2000/svg" viewBox="0 0 543.7 635.75"><defs><style>.cls-1{fill:#fff;}.cls-2{fill:#396592;}.cls-3{fill:#3f77b5;}.cls-4{fill:#e5a33a;}.cls-5{fill:#62a9dd;}.cls-6{fill:#568346;}.cls-7{fill:#456b46;}.cls-8{fill:#d87c2a;}.cls-9{fill:#b0cd4d;}.cls-10{fill:#d45f30;}.cls-11{fill:none;stroke:#9d9d9c;stroke-miterlimit:10;stroke-width:0.5px;}.cls-12{fill:#d56031;}.cls-13{fill:#d87c2b;}.cls-14{fill:#b1cd4d;}.cls-15{fill:#e5a33b;}</style></defs><path class="cls-1" d="M337.25,467.93" transform="translate(-25.79 -66.06)"/><polygon class="cls-2" points="271.85 347.47 396.68 275.4 271.85 203.32 271.85 347.47"/><polygon class="cls-3" points="271.85 347.47 147.02 275.4 271.85 203.32 271.85 347.47"/><polygon class="cls-4" points="396.68 419.54 271.85 347.47 396.68 275.4 396.68 419.54"/><polygon class="cls-5" points="147.02 419.54 271.85 347.47 147.02 275.4 147.02 419.54"/><polygon class="cls-6" points="271.85 491.61 396.68 419.54 271.85 347.47 271.85 491.61"/><polygon class="cls-7" points="271.85 491.61 147.02 419.54 271.85 347.47 271.85 491.61"/><polygon class="cls-8" points="147.02 563.68 271.85 491.61 147.02 419.54 147.02 563.68"/><polygon class="cls-9" points="396.68 563.68 271.85 491.61 396.68 419.54 396.68 563.68"/><polygon class="cls-10" points="271.85 635.75 396.68 563.68 271.85 491.61 271.85 635.75"/><polygon class="cls-4" points="271.85 635.75 147.02 563.68 271.85 491.61 271.85 635.75"/><path class="cls-11" d="M174,164.14" transform="translate(-25.79 -66.06)"/><polygon class="cls-12" points="271.85 0 271.85 156.95 543.7 78.48 271.85 0"/><polygon class="cls-13" points="271.85 0 271.85 156.95 0 78.48 271.85 0"/><polygon class="cls-14" points="543.7 78.48 543.7 235.43 271.85 156.95 543.7 78.48"/><polygon class="cls-15" points="0 78.41 0 235.36 271.85 156.88 0 78.41"/></svg>