<svg id="Capa_1" data-name="Capa 1" xmlns="http://www.w3.org/2000/svg" viewBox="0 0 384 384"><defs><style>.cls-1,.cls-5{fill:#fff;}.cls-2{fill:#27348b;}.cls-3{fill:#fffeff;}.cls-4{fill:#fdfdfe;}.cls-5,.cls-6{stroke:#1d1d1b;stroke-miterlimit:10;}.cls-6{fill:none;}</style></defs><path class="cls-1" d="M491.2,352.6q0,94.25.06,188.5c0,2.69-.42,3.51-3.37,3.51q-188.7-.14-377.41,0c-2.79,0-3.22-.68-3.22-3.29q.12-188.69,0-377.38c0-2.53.31-3.33,3.18-3.33q188.9.15,377.79,0c2.62,0,3,.61,3,3.1Q491.14,258.16,491.2,352.6Z" transform="translate(-107.26 -160.61)"/><path class="cls-2" d="M484.34,416.6c0,9.85,0,19.69.17,29.53,0,2.2-.71,2.77-2.78,2.66-3.1-.15-6.23-.08-9.34,0-4.95.08-8.6,2.33-10.66,6.84-2.15,4.68-1.36,9,2,12.82,2.24,2.5,4.66,4.86,7.11,7.16,1.35,1.26,1.58,2.06.11,3.51q-11.1,10.84-22,21.94c-1.32,1.34-2.15,1.56-3.51.06-2.17-2.4-4.49-4.68-6.86-6.88-3.82-3.55-8.21-4.63-13.07-2.4a11.28,11.28,0,0,0-7,11c0,3.12-.12,6.24,0,9.35.11,2-.63,2.51-2.55,2.49-10.22-.08-20.44-.13-30.66,0-2.5,0-2.88-.93-2.78-3,.14-3.11.11-6.24,0-9.35A11.07,11.07,0,0,0,376,491.92a10.84,10.84,0,0,0-12.53,1.68c-2.72,2.37-5.25,5-7.73,7.6-1.22,1.29-2,1.41-3.24,0-1.52-1.79-3.23-3.42-5.21-5.49-.46,2.24-.75,4-1.19,5.69a15.72,15.72,0,0,1-8.57,10.75,12.71,12.71,0,0,0-6.17,6.31c-7,13.32-18.29,20.32-33.3,20-14.85-.36-25.67-7.81-32.17-21.21a8.5,8.5,0,0,0-4.48-4.46,17.51,17.51,0,0,1-7.31-25.84c1.14-1.75,1.22-2.78,0-4.49-2.45-3.41-2.8-5.44-3.19-12.43-1.5.25-2.17,1.56-3.08,2.47q-16.7,16.62-33.32,33.3a11.12,11.12,0,0,1-3.9,2.79c-24.73,9.46-49.43,19-74.18,28.43-10.53,4-20.27-.91-22.71-11.23a14.12,14.12,0,0,1,.54-8.46q14.19-36.88,28.47-73.76c4.64-2.2,9.53-.78,14.3-1,2.14.21,3.54,1.65,4.95,3.06,4.75,4.74,9.48,9.5,14.24,14.23,3,3,3,3,5.9.11,4.05-4,8.08-8.09,12.13-12.12,1.32-1.31,2.61-2.7,4.62-3,3.31-.29,6.62-.16,9.93-.13,1.47,0,3,.1,4,1.34,1.25,2.31-.66,3.45-1.89,4.71-6.21,6.31-12.51,12.53-18.75,18.8-3.08,3.09-3.08,3.17,0,6.23,4.84,4.86,9.76,9.65,14.52,14.58,1.8,1.86,3.08,1.86,4.92,0,11.93-12,23.89-24.07,36-35.93,1.95-1.91,1.37-3.72,1.26-5.75,1.72-3.93,5.36-5.13,9.73-3.14a26.49,26.49,0,0,1,4.4,2.7c2.17,5,6.18,5.92,11.16,5.47a80.79,80.79,0,0,1,12.25,0c3.23.21,5.49-.67,6.6-3.84,3.74-1.29,7.53-.92,11.32-.29,1.66,4.69,5.55,4.26,9.39,4.17,4.59-.11,9.2-.16,13.79,0,3,.11,4.73-1,6.07-3.74,4.36-9,10.52-16.83,17.22-24.22,1.32-1.47,2.71-2.94,4.79-3.39a87.92,87.92,0,0,1,11.59-.18c2.15,0,3.94.75,4.46,3.15.1,6.23.24,12.39,3.2,18.18a28.9,28.9,0,0,0,54.8-12.23,36.18,36.18,0,0,1,.21-5.6c2.18-3.86,6.59-4.74,12-2.39,1.55,1.53,1.69,3.52,1.76,5.53a43.27,43.27,0,0,1-25.11,40.84,42.69,42.69,0,0,1-47.25-7.84,41.61,41.61,0,0,1-10.69-16.48,43.15,43.15,0,0,0-2.11-5.94c-1.22-.37-1.57.63-2.07,1.25a83,83,0,0,0-10.65,16.2c-1.22,2.52-1.54,4.91-.09,7.47a16.84,16.84,0,0,1,2.07,10.45c-.28,2.5,3.88,8,6.22,8.52,1.7.36,2.74-1,4-1.73A24.81,24.81,0,0,1,392.88,491a26.29,26.29,0,0,1,2.52,7.8c.36,2.14,1.52,2.81,3.58,2.91,5.84.25,6.15.15,7.15-4,4.28-17.77,22.6-25.39,37.93-15.53,3.39,2.18,4.84.34,6.88-1.58s2.93-3.46,1.08-6.32c-9.86-15.3-2.33-33.77,15.49-37.86,3.62-.83,4.11-2.6,4.08-5.71s-.44-5-4-5.42a19.92,19.92,0,0,1-9.87-4.2c-1.27-1-2.67-2-1.75-4,1.13-1.46,2.78-1.56,4.4-1.58,6.71-.08,13.42-.07,20.13,0C481.89,415.47,483.28,415.52,484.34,416.6Z" transform="translate(-107.26 -160.61)"/><path class="cls-2" d="M191.91,342.51a2.23,2.23,0,0,0,0-.36c-.44-2.32,1.66-5.61.16-6.6-1.84-1.22-5-.5-7.6-.5-12,0-24.1.16-36.14-.07-10.06-.19-18.69-3.91-25.3-11.75-1.25-2.71,0-3.94,2.6-4.19,3.42-.34,6.86,0,10.28-.25,8.83,4.14,18.26,3.1,27.55,3.1q71.42,0,142.82,0c12.81,0,17-2.84,21.53-14.73a5.52,5.52,0,0,1,.72-1.3c5.54-2.54,10.85-1.13,12.49,3.3-1.07,14.62-14,26.55-29.38,26.88-8.07.18-16.14,0-24.22,0-4.6,0-4.6,0-5.53,4.66a3.13,3.13,0,0,1-1.19,2.24c-3.95,1-7.89,1.25-11.79-.23a3.69,3.69,0,0,1-.8-1.65c-1.11-4.9-1.12-4.92-6.22-4.92q-25.39,0-50.8,0c-5.34,0-5.6.29-6,5.62-.11,1.35,0,2.78-1.27,3.75a12.42,12.42,0,0,0-8.34-2A4.46,4.46,0,0,1,191.91,342.51Z" transform="translate(-107.26 -160.61)"/><path class="cls-2" d="M484.34,416.6c-8,0-16.1,0-24.15,0-1.56,0-3.32-.4-4.18,1.55-1.71.29-2.4-1-3.21-2.1a24.23,24.23,0,0,1-1.37-28c.82-1.32,2.55-2.56,1.67-4.28a13.54,13.54,0,0,0-5.43-5.49c-1.56-.9-2.73.75-3.93,1.51-14.25,9-32.69,2-37-13.94a62.42,62.42,0,0,1-2.77,12.5c-.3.95-.79,1.87-2.07,1.81a23.63,23.63,0,0,0-8.5-.61c-1.19.08-2.48.55-3.5-.58a4.61,4.61,0,0,1,.2-3.27,79,79,0,0,0,3.52-26.05c0-1.82-.31-3.77,1.17-5.29,3.75-1.06,7.49-1.48,11.14.37.16,1.17-.07,2.45,1.92,2.31,2.6-.19,5.24.09,7.85-.09,2.22-.14,3.14.45,3,2.86-.21,3.1-.1,6.23,0,9.34a11.15,11.15,0,0,0,6.94,10.61,11,11,0,0,0,12.52-1.92,76.17,76.17,0,0,0,7.16-7.1c1.61-1.82,2.53-1.47,4.07.1,7,7.13,14,14.21,21.17,21.12,2,1.94,1.71,3-.16,4.6-2.16,1.87-4.12,4-6.09,6.06-3.57,3.78-4.79,8.15-2.63,13s6,7.16,11.25,7.15c2.74,0,5.5.22,8.22-.06C484.3,412.44,485,413.81,484.34,416.6Z" transform="translate(-107.26 -160.61)"/><path class="cls-2" d="M477.21,240.85a33.47,33.47,0,0,1-2.81,4.33A377.09,377.09,0,0,1,447,272.75c-6.68-.22-13.36-.8-20,.32-2.08.62-3.21-.88-4.42-2.08-4.33-4.26-8.6-8.59-12.91-12.87-3-3-3-3-6.14.1-1.24,1.22-2.42,2.49-3.71,3.66-1,.91-2,2-3.57,1.38-2.49-.84-5.07-.43-7.62-.53-1.94-.08-3.93.12-5.62-1.16-1-.95-.45-1.89.22-2.6a158.56,158.56,0,0,1,13.46-13.23,3.77,3.77,0,0,1,1.72-.64c5.12-.45,10.27.09,15.38-.4,2.16-.23,3.41,1.27,4.72,2.57,5.21,5.18,10.44,10.34,15.56,15.6,1.76,1.8,3.1,2,4.94.08,6.58-6.82,6.29-5,.17-11.24-3.48-3.56-7.06-7-10.54-10.58-1.19-1.21-2.72-2.34-2.16-4.44,1.06-1.65,2.77-1.43,4.34-1.46a79.5,79.5,0,0,0,9.26-.4c2.09,0,3.32,1.41,4.63,2.7,2.46,2.42,5,4.78,7.3,7.35,1.89,2.11,3.27,1.83,5.15-.07,2.21-2.22,4-5.15,7.48-5.75a65,65,0,0,1,8.49-.11C474.71,239,476.39,239.06,477.21,240.85Z" transform="translate(-107.26 -160.61)"/><path class="cls-2" d="M380.42,203.33c8.12-8.4,16-17.14,24.93-24.63,28.43-23.75,71.47-8,78.22,28.35-3.77.72-7.62,0-11.39.66-2.48-.62-2.38-3-3.07-4.73a35.24,35.24,0,0,0-33.8-22.59,34.37,34.37,0,0,0-22.75,9.07c-1.84,1.67-3.47,3.58-5.32,5.23-2,1.81-2.05,3.35-.11,5.3,1,1,3.23,2.2.92,4.14-4.05,1.67-8.31,1-12.49,1.07a92,92,0,0,1-10.76-.15C383.21,204.88,381.58,204.67,380.42,203.33Z" transform="translate(-107.26 -160.61)"/><path class="cls-2" d="M158.18,443.53H142.67a12.62,12.62,0,0,1,3.86-6.59Q170.8,412.75,195,388.43c1.13-1.12,2.56-2.07,2.14-4,4.11-3,8.26-2.3,12.43-.16a3.8,3.8,0,0,1,1.38,1.22c4.11,7.13,9.45,13.3,14.89,19.42.54.61,1.14,1.4.33,2.29-2.45,1.13-5.07.71-7.57.56s-3.6.51-3,3.1c-1.54,1.59-2.44,0-3.3-.8a43.13,43.13,0,0,1-7.21-9c-1.72-2.61-2.92-2.3-4.75-.26-10,11.2-20.87,21.64-31.51,32.27C165.27,436.57,161.87,440.2,158.18,443.53Z" transform="translate(-107.26 -160.61)"/><path class="cls-2" d="M113.8,293.79c2.09-12.87,9.16-22.08,21-27.35,3.25-1.45,4.5-2.77,3.3-6.11a7.42,7.42,0,0,1-.1-2.22c-.93-2.36.42-3.21,2.42-3.38a25,25,0,0,1,8.09.24,3.44,3.44,0,0,1,2.24,3.18c.19,3.37,2.36,4.17,5.17,4.75,16,3.3,27,14.62,29.85,30.61,1,5.44.11,6.52-5.28,6.59-.87,0-1.75,0-2.62,0-4.81-.07-5.06-.28-6.12-5.11-2.38-10.88-10.56-18.21-21.33-18.73a22.84,22.84,0,0,0-23,15.76c-.48,1.37-.15,3.47-2.51,3.6a27,27,0,0,0-7-.69C116.47,294.91,114.91,295.1,113.8,293.79Z" transform="translate(-107.26 -160.61)"/><path class="cls-2" d="M242.13,212.28a31.54,31.54,0,0,1,6.16,8.32c1.08,2,2.22,2.36,4.46,1.9,15.51-3.12,29.46.06,41.41,10.78-1.9,1.64-4.21.89-6.35,1.07-4.11.35-8.37-.87-12.3,1.21-1.51.71-2.93,0-4.36-.32-15.5-3.41-30.16,2.89-38.38,16.5-.76,1.25-1.3,2.75-3.05,3-3.65-.42-7.34.16-11-.61-2.27-1.54-.91-3.41-.2-4.93,3.68-7.73,8.62-14.46,15.79-19.39,3.34-2.29,3.29-2.37,1-5.7a45.2,45.2,0,0,0-6.8-7.88c-1.09-1-2.44-1.89-1.66-3.73C231.9,210.23,237,210.77,242.13,212.28Z" transform="translate(-107.26 -160.61)"/><path class="cls-2" d="M380.42,203.33a115.58,115.58,0,0,0,28.43,0c1.7-.53,2.47.86,3.37,1.75q13.59,13.47,27.06,27.06c.9.9,2.28,1.67,1.75,3.37-3.58,1.23-7.29.54-10.94.75-1.23.07-2.86-.6-3.24,1.45-2,.43-2.84-1.24-3.91-2.3-8.41-8.34-16.77-16.74-25.15-25.1-3.44-3.43-3.6-3.42-7.11.12-.44.44-.89.87-1.31,1.34-2.68,3-2.67,3.6.13,6.47,1.57,1.6,3.24,3.11,4.72,4.79.86,1,2.16,2,.88,3.52-1.88,1.4-4.06.9-6.14,1-2.36.1-4.74-.21-7,.57-3.49-1.95-7-1.7-10.52,0-2.92-.79-5.9-.34-8.85-.51-1.68-.1-3.56.22-4.51-1.77C365.3,218.12,372.67,210.53,380.42,203.33Z" transform="translate(-107.26 -160.61)"/><path class="cls-2" d="M242.13,212.28c-4,0-8.09,0-12.14.06-1.14,0-2.59-.45-2.91,1.37-1.57.67-2.62-.45-3.67-1.18-16-11.15-38.42-11.62-56.14,2.48-1.24,1-2.35,2.27-4.16,2.26a27.29,27.29,0,0,0-8.49-.94c-1.69,0-3.6.28-4.57-1.73a55.49,55.49,0,0,1,35.89-22.07C208.19,188.65,227.11,195.14,242.13,212.28Z" transform="translate(-107.26 -160.61)"/><path class="cls-2" d="M358,225.8c3.56,1.48,7.29.4,10.93.75,1.23.11,2.87-.6,3.24,1.45.53,1.53-.67,2.3-1.49,3.13q-11.14,11.25-22.4,22.42c-1.19,1.17-2.46,2.15-4.3,1.54a14.51,14.51,0,0,0-3.33-.45c-14.54.05-29.08-.24-43.61.17a3.29,3.29,0,0,1-3.24-2,36,36,0,0,0-16.77-15.61c-.87-.4-1.82-.82-2.12-1.91.76-2.13,2.6-2,4.32-2,5,0,9.93,0,14.89,0,3.47,3.64,7.31,7,9.77,11.45a1.88,1.88,0,0,0,1.95,1.16,93.55,93.55,0,0,1,23.95,4,4.48,4.48,0,0,0,5.19-1.36C342.63,240.92,350.35,233.38,358,225.8Z" transform="translate(-107.26 -160.61)"/><path class="cls-2" d="M405.91,344.75l-11.36,0c-1.75-.32-1.44-1.81-1.59-2.95a93,93,0,0,0-16.21-42.55,5.62,5.62,0,0,1-1.38-3.78c.48-2.08,2.11-2.56,3.9-2.63a42.22,42.22,0,0,1,8.41.18c3.39,1.58,4.53,5,6.23,7.9,2.12,3.64,2,3.7,5.8,1.71a3.53,3.53,0,0,1,1.79-.35c3,.33,6.1.08,9.13.31,1.73.13,3.82-.07,4.23,2.45-3.54,3.63-6.93,7.43-10.67,10.84-2.4,2.19-3,4.17-2,7.38A68.94,68.94,0,0,1,405.91,344.75Z" transform="translate(-107.26 -160.61)"/><path class="cls-2" d="M414.86,305.07c-1.37-1.62-3.26-1.37-5.09-1.49-3-.19-6.15.72-9.08-.71-.45-2,1.23-2.83,2.29-3.9q10.35-10.49,20.85-20.83a6.17,6.17,0,0,0,2.25-5.18,2.64,2.64,0,0,1,2.73-1.53c5.23,0,10.46,0,15.69,0a2.64,2.64,0,0,1,2.5,1.32q-14.56,14.81-29.14,29.61C416.92,303.32,415.86,304.17,414.86,305.07Z" transform="translate(-107.26 -160.61)"/><path class="cls-2" d="M150.05,214.6c2.58,1.34,5.35.64,8,.66a8.31,8.31,0,0,1,5.53,1.59c.17,1.75-1.19,2.65-2.1,3.78-7.31,9-11.34,19.19-11.31,30.88,0,1.45.26,3-1,4.21-2.83,0-5.66.08-8.49,0-1.8-.06-2.87.44-2.78,2.42-2-10.64.21-20.73,4.22-30.52A44.58,44.58,0,0,1,150.05,214.6Z" transform="translate(-107.26 -160.61)"/><path class="cls-2" d="M210,385.15c-4.18-2-8.48-1.91-12.84-.73-4.11-8.55-5.38-17.75-5.86-27.06-.26-4.94-.52-9.94.66-14.85,2.61,0,5.22.1,7.81,0,2.37-.11,3.5.86,3.48,3.2,1.35,1.61,1,3.55,1,5.37a73,73,0,0,0,5.64,30.22C210.33,382.52,210.91,383.82,210,385.15Z" transform="translate(-107.26 -160.61)"/><path class="cls-2" d="M471.67,207.1c4-.94,7.92-1.38,11.9,0,2.23,12.09.26,23.38-6.36,33.8-4.5-1.74-9.19-.42-13.78-.87-.29-1.95,1.07-3.23,2-4.63A34.75,34.75,0,0,0,471.11,211C471,209.63,470.57,208.26,471.67,207.1Z" transform="translate(-107.26 -160.61)"/><path class="cls-2" d="M113.8,293.79c2.7,0,5.41.08,8.12.08,1.41,0,2.74.05,3.41,1.59,1,1,.89,2.27.9,3.49a23.7,23.7,0,0,0,8.13,17.77c.72.66,1.58,1.25,1.46,2.43-3.08,1.93-6.46.73-9.69.83-2.47.07-3.38.92-3.15,3.25Q111.2,310.75,113.8,293.79Z" transform="translate(-107.26 -160.61)"/><path class="cls-1" d="M376,296.13c5.32,7.92,10.07,16.14,13.29,25.19,2.7,7.61,4,15.53,5.3,23.46.63,11.72-.36,23.24-4.3,34.4,0,3.11-1.63,5.66-3,8.24-6.28,11.57-15.76,20.47-25,29.55-2.29,2.25-4.22,4.94-7.28,6.32-8.8,8.39-16.21,17.81-21.27,28.92-.9,2-1.82,2.71-4.11,2.63-6.71-.24-13.44-.34-20.14,0-3.74.19-5.24-.89-4.67-4.59-1.17-1.51-1-3.3-1-5,0-6.48,0-12.95,0-19.43-.12-10.43-7.23-17.6-17.61-17.82-3.49-.08-7,.1-10.46-.09-5-.27-7.83-3-7.73-7.25s3-6.82,8.06-6.84q28-.12,56,0c6.05,0,11.25-1.75,15.48-6.15,4.48-5.42,5.52-11.43,2.39-17.73s-8.38-9.77-15.53-9.82c-14.55-.1-29.1,0-43.65,0a27,27,0,0,1-4.84-.23c-2.65-.49-4.85-1.91-5.42-4.53-.93-4.23-1.41-8.56.33-12.78.42-7.48.42-7.48,8.05-7.48,7,0,13.92-.16,20.87,0,13.72.37,27.76-8.71,30.39-25.31.1-12.3-3.31-22.85-14.63-29.49a26.82,26.82,0,0,0-13.43-4c-2.06,0-2.54-.95-2.37-2.8a43.43,43.43,0,0,0-.54-12.25c-.7-3.6.25-4.41,4.08-3.84A97,97,0,0,1,373.67,292,11.74,11.74,0,0,1,376,296.13Z" transform="translate(-107.26 -160.61)"/><path class="cls-1" d="M210,385.15c-1.79-5.51-4.25-10.78-5.36-16.52a103.83,103.83,0,0,1-1.39-22.95c.88-2.25.61-4.62.78-7s.82-3.77,3.77-3.75q29.07.19,58.13,0c2.39,0,3.39.57,3.11,3.07a31.69,31.69,0,0,0,.09,4.46c1.82,3.14.88,6.58,1,9.88A17.42,17.42,0,0,0,277,366.27c3.38,2.67,7.3,3.57,11.54,3.56q21.12-.06,42.23,0a28.09,28.09,0,0,1,4.85.21,7,7,0,0,1,.06,13.81,28,28,0,0,1-4.85.2H276.62c-4.05,0-7.94.58-11.25,3.19-6.68,5.55-8.84,12.1-6.27,19.12s8.93,11.33,17.18,11.42c3.49,0,7-.16,10.47.09,4.13.3,6.79,2.52,7,6.41.44,8,.26,16,.07,23.93a3.44,3.44,0,0,1-.81,2.05c.56,3.66-.87,4.81-4.64,4.59a187.35,187.35,0,0,0-19,0c-3,.13-5-.39-5.75-3.53a11,11,0,0,0-1.44-2.54c-4.35-5.25-7.6-11.28-12.05-16.48-6.56-7.66-14-14.39-21-21.65-1.1-1.14-2.55-2-2.85-3.79C220.37,400,214.18,393.32,210,385.15Z" transform="translate(-107.26 -160.61)"/><path class="cls-1" d="M402.24,380.08c2.37-5.11,2.86-10.68,3.9-16.13,1.59.31,1.33,1.76,1.67,2.7,5.76,15.84,24,21.32,37.21,11,2-1.6,3-1.27,4.46.37,1.74,2,4.41,3.45,5.29,5.68s-2.22,4-3.34,6.07A23.52,23.52,0,0,0,456,418.14c3.83,4.13,8.75,6,14.2,6.57,1.7.17,2.59.53,2.29,2.37a4.57,4.57,0,0,0,0,.74c0,2.62.69,5.53-.22,7.78-1.08,2.63-4.54,1.37-6.89,2.09A23.8,23.8,0,0,0,453.68,475c1.57,2,1.8,3.27-.33,4.71a5.19,5.19,0,0,0-.53.52c-1.68,1.67-3.11,4.09-5.13,4.78-2.26.78-3.76-2.19-5.75-3.3a23.75,23.75,0,0,0-35.11,18.1c-.32,2.61-1.25,3.11-3.4,2.83h-.38c-2.49,0-5.36.74-7.37-.26-2.18-1.08-1.21-4.4-1.88-6.68a23.76,23.76,0,0,0-37.19-12c-2.22,1.74-3.45,1.76-5-.36a12.51,12.51,0,0,0-1.85-1.86c-2.37-2.09-4.21-4-3.15-7.88,1-3.52-.61-7.11-2.56-10.25-.67-1.08-1.29-2-.7-3.42a76.45,76.45,0,0,1,15.46-23.49c1,3.29,1.73,6.23,2.78,9.06,6.54,17.63,24.59,29,42.95,27a42,42,0,0,0,37.4-35.18c.71-4.47,1-8.9-.18-13.32-1.32-2-1.58-4.43-2.44-6.62-6.43-16.51-18.52-25.62-36.07-27.53-5.13-.56-5.3-.74-3.23-5.66C400.62,382.81,400.75,381.08,402.24,380.08Z" transform="translate(-107.26 -160.61)"/><path class="cls-1" d="M158.18,443.53c-.29-1.72,1.19-2.36,2.1-3.28,9-9,18-18,26.93-27q7.08-7.15,13.9-14.56c1.54-1.68,2.32-1.49,3.51.3A66.46,66.46,0,0,0,215,411.61c3,1.79,5,4.69,7.39,7.17a2.27,2.27,0,0,1-.19,3.37c-8,7.93-15.43,16.53-24.29,23.63-4.36,4.26-8.74,8.5-13.06,12.8-5.69,5.64-5.66,5.64-11.48-.14C168.33,453.45,163.25,448.5,158.18,443.53Z" transform="translate(-107.26 -160.61)"/><path class="cls-1" d="M197.74,500.56c-10.85,4.19-21.89,8-32.53,12.74-5.17,2.3-8.17,1.27-11.65-2.68-4.86-5.5-10.31-10.48-15.51-15.67-1-1-1.86-1.76-1.17-3.49,4.82-12.26,9.53-24.56,14.28-36.84a.62.62,0,0,1,.34-.32Z" transform="translate(-107.26 -160.61)"/><path class="cls-1" d="M249.46,449.61c1.16,1.89,1,3.28-.74,5q-18.79,18.5-37.29,37.28c-1.85,1.87-2.88,1.87-4.68,0-5.52-5.76-11.15-11.42-16.93-16.92-2-1.9-1.66-2.92.12-4.68,7.71-7.61,15.27-15.37,22.88-23.07,2.06-3.81,5.65-6.23,8.51-9.31,2.45-2.64,5-5.14,7.64-7.65,1.4-1.36,2.88-2,4.56-.49a94.16,94.16,0,0,1,15,17C249.09,447.7,248.92,448.76,249.46,449.61Z" transform="translate(-107.26 -160.61)"/><path class="cls-1" d="M430.5,426.52c.87,12.86-3.48,23.29-14.78,30-9.76,5.8-20,5.81-29.81.21S371.13,442.33,370.73,431c-.05-1.49,0-3,.08-4.47-.3-3.22,1.54-5.3,3.71-7.28a101.47,101.47,0,0,0,11.79-13c3.28-4.24,7.46-6,12.53-6.31A31.25,31.25,0,0,1,430,421.05C430.67,422.93,430,424.74,430.5,426.52Z" transform="translate(-107.26 -160.61)"/><path class="cls-2" d="M293,450.26q-.06-12-.12-23.93c0-5.38-2.1-7.46-7.45-7.49-3.49,0-7,0-10.47,0a18,18,0,0,1-17.27-12.95c-2.3-7.15.18-14.31,6.67-19.25a19,19,0,0,1,6.94-1.19c23.54,0,47.08,0,70.62.06,2.45,0,5.47-.76,6.55,2.75a17.81,17.81,0,0,1-14.17,6.62q-29.18.08-58.35,0c-3.39,0-5.89,1.12-6.81,4.46-1.1,4,1.62,7.36,6,7.52,3.74.14,7.48,0,11.22,0,10.65.07,18.47,7.77,18.51,18.34,0,8.35-.07,16.7-.11,25.05Z" transform="translate(-107.26 -160.61)"/><path class="cls-2" d="M430.5,426.52c-1.62-6.61-4.14-12.74-9.34-17.42-7.5-6.75-16.13-9.49-26.16-7.59a10.23,10.23,0,0,0-6.78,4,119.58,119.58,0,0,1-13.36,14.56,12.75,12.75,0,0,0-4.05,6.43c.08-2.6-1.32-3.33-3.73-3.26-4,.12-8.09,0-12.14,0,4.61-4.67,9.19-9.39,13.85-14,8.87-8.81,16.6-18.42,21.46-30.09,3.06-1.15,6.25-.66,9.4-.75a2.58,2.58,0,0,1,2.59,1.65c-.29,3-2.15,5.51-3,8.67,6,.17,11.72.87,17.07,3.25,14,6.25,23,16.59,25.4,32.07-2.78-1.39-5.74-.72-8.62-.62C431.51,423.51,430.72,424.92,430.5,426.52Z" transform="translate(-107.26 -160.61)"/><path class="cls-2" d="M249.46,449.61a145,145,0,0,0-15.77-18.86c-1.63-1.63-2.51-1.69-4.14,0-5.48,5.6-11.14,11-16.73,16.51-.71-1.55-2.09-1.48-3.47-1.48-3.81,0-7.63,0-11.45,0,7.57-7.67,15.08-15.41,22.77-23,1.92-1.89,2.29-3,.08-4.94a28,28,0,0,1-5.76-6.27c.52-1.81-.85-2.86-2.6-4.77h14c10.71,10.52,22,20.51,30.66,32.94,2,2.84,4,5.66,5.2,9-2.54-1.06-4.51-3.19-7.71-3.1C251.56,445.74,249.82,446.58,249.46,449.61Z" transform="translate(-107.26 -160.61)"/><path class="cls-1" d="M298.93,478.69c-9.59,0-19.17,0-28.75,0-4.44,0-7.11-2.23-7.2-5.85s2.7-6.1,7.3-6.11q28.58,0,57.13,0c4.64,0,7.42,2.32,7.38,6s-2.79,5.92-7.49,5.93Q313.11,478.71,298.93,478.69Z" transform="translate(-107.26 -160.61)"/><path class="cls-1" d="M298.86,490.66c9.59,0,19.17,0,28.75,0,4.4,0,7.11,2.27,7.18,5.86s-2.72,6.09-7.32,6.09q-28.56,0-57.12,0c-4.64,0-7.41-2.33-7.37-6.05s2.81-5.9,7.51-5.91Q284.68,490.65,298.86,490.66Z" transform="translate(-107.26 -160.61)"/><path class="cls-1" d="M319.79,514.77c-5.21,7.86-12.17,11.8-21.08,11.73-8.75-.07-15.61-4-20.72-11.73Z" transform="translate(-107.26 -160.61)"/><path class="cls-3" d="M131.3,506.11l14.49,14.43c-4.72,1.82-9.68,3.7-14.61,5.64a4,4,0,0,1-4.74-1.06,3.93,3.93,0,0,1-.76-4.47C127.63,515.72,129.51,510.77,131.3,506.11Z" transform="translate(-107.26 -160.61)"/><path class="cls-1" d="M135.82,319.15q-11.73-9-10.49-23.69c1.88-7.23,5.31-13.34,12.07-17.14,14.9-8.37,32.62.45,35.53,17.86.39,2.39,1,3.24,3.37,3a41.79,41.79,0,0,1,4.48,0c4.83,0,4.9-.08,4.09-4.72-2.9-16.68-13.7-27.78-30.3-30.62-3.43-.58-4.75-1.9-4.71-5.16a12.67,12.67,0,0,0-.64-2.91c-.81-15,3.93-28,14.39-38.87,10.14-9.06,21.83-14,35.62-13.48,10.4.42,19.52,4.32,27.85,10.34a65.21,65.21,0,0,1,10.34,11.72c1.28,1.89,1,2.75-.88,4-8.83,5.91-15.35,13.7-18.52,24,.21,3.18-1,6.11-1.63,9.14-.43,2.21-2.59,2.85-4.42,3.64-7,3.07-11.22,8.52-13.25,15.72-1,3.53-.41,4,3.31,4.25s6.06-.65,7.59-4.65c1.87-4.9,6.24-7.36,11.59-7.29,5.52.07,9.42,2.89,11.72,7.84a7.59,7.59,0,0,0,9.62,3.84c1.78-.79,1.3-2.26,1-3.53-1.81-6.81-5.51-12.18-11.93-15.48-5.55-2.85-6.13-8-1.47-12.69,4.34-7.94,10.13-14.37,18.64-18a36.09,36.09,0,0,1,26.2-1,38.57,38.57,0,0,1,20.8,19,5.39,5.39,0,0,1,2.24,3.27c2.26,7.08,3.15,14.16,0,21.24-5.71,3.87-10.86,8.25-13.64,14.85a36.11,36.11,0,0,0-2.14,7.51c-.35,1.88.36,2.86,2.3,2.93,1.12,0,2.24-.06,3.35.05,2.71.27,4-.92,4.7-3.55A18.87,18.87,0,0,1,306,286.88c10.34-3.11,22.19,4.7,23.56,15.42a4.48,4.48,0,0,1-.66,3.56c-1.92,11.57-8.49,17.2-20.13,17.2q-79.12,0-158.25,0C145.22,323.1,140.29,322.12,135.82,319.15Z" transform="translate(-107.26 -160.61)"/><path class="cls-2" d="M348.49,388.24c-1.34-1.62-3.15-1.61-5.05-1.61q-39.53,0-79.06,0c3.26-2.88,7.17-3.72,11.38-3.72q28.75,0,57.52,0c4.26,0,6.71-1.63,7.39-4.81.83-3.93-2.19-7.12-6.92-7.13q-22.41,0-44.82,0c-12.65,0-20-7.28-20-19.85,0-2.86.07-5.72.11-8.58h11.73q.06,4.49.11,9c.06,5.38,2.11,7.48,7.46,7.49,15.57,0,31.14-.11,46.72.06,7.38.08,12.9,3.79,16,10.44S353.36,382.53,348.49,388.24Z" transform="translate(-107.26 -160.61)"/><path class="cls-2" d="M328.94,305.86c-.14-15.24-15.82-23.3-27.46-16a17.71,17.71,0,0,0-8.43,13c-.25,1.76-.78,2.4-2.51,2.23-1.24-.12-2.49,0-3.74,0-6.47,0-6.62,0-5.08-6.53,2.12-9,7.19-15.73,15.58-19.82,9.58-.12,19.19-1.25,28.7.83,10.67,5.18,17,20.37,14.12,30.17.12-3.44-2.57-3.56-4.84-3.84A51.51,51.51,0,0,0,328.94,305.86Z" transform="translate(-107.26 -160.61)"/><path class="cls-1" d="M471.67,207.1c1.83,10.06.67,19.59-5,28.3-1,1.56-2.14,3-3.21,4.58-2.38,2.34-4.85,4.6-7.13,7-1.37,1.47-2.27,1.29-3.6-.06-3.82-3.88-7.77-7.63-11.67-11.43Q425.34,219,408.85,203.35a11.21,11.21,0,0,0-.87-1.18c-4.71-4.93-4.58-4.81.24-9.92,7.52-8,16.48-12.71,27.56-12.82a36.36,36.36,0,0,1,35.21,26C471.16,206,471.44,206.54,471.67,207.1Z" transform="translate(-107.26 -160.61)"/><path class="cls-2" d="M326,279.59q-12.83,0-25.66.06c-1.09,0-2.28.25-3-.89,2.9-8.38,1.58-16.48-1.55-24.47a7.6,7.6,0,0,1,3.95-.83q20.85,0,41.7,0c1.47,0,3.05-.28,3.87,1.46,8.08,4.12,15.87,8.7,22.73,14.69,1.77,1.54,3.13,1.48,4.72-.27,2.08-2.28,4.32-4.44,6.56-6.57.94-.89,1.71-2.24,3.38-1.84,3.57,1.23,7.26.57,10.9.78,1.21.07,2.83-.67,3.35,1.29-.15,1.66-1.5,2.5-2.51,3.53q-6,6.09-12.06,12.06c-1.74,1.7-1.95,3.14-.27,5.06a60.51,60.51,0,0,1,5.23,6.72c.66,1,2.11,1.91,1.16,3.51-3.11,0-6.21,0-9.32,0-1.64,0-3,.24-3.18,2.26-9.87-12.43-21.55-22.63-36-29.5a99.36,99.36,0,0,0-27.65-8.49c-1.93-.3-3-.32-2.36,2.34a32.86,32.86,0,0,1,.71,12.22c-.26,1.93,0,2.45,2.08,2.59C317.5,275.6,322.09,276.63,326,279.59Z" transform="translate(-107.26 -160.61)"/><path class="cls-1" d="M388.46,293.9a55.26,55.26,0,0,0-7.71-10.38c-1.62-1.81-1.59-3,.06-4.61,5.4-5.26,10.74-10.59,16.1-15.89,3-2,5.26-4.88,7.78-7.42,1.51-1.51,2.4-1.5,3.89,0,5.77,5.85,11.66,11.58,17.5,17.35,1.71,1.59,1.52,2.82-.19,4.51-8.48,8.39-16.81,16.92-25.2,25.4-4.6,3.91-4.55,3.89-7.54-1.41C391.7,298.88,390,296.41,388.46,293.9Z" transform="translate(-107.26 -160.61)"/><path class="cls-1" d="M382.66,261c-3.55,3.44-7.13,6.87-10.66,10.35-.94.92-1.59,1.61-3,.37a104,104,0,0,0-22.5-15.09c-.72-.36-1.29-.74-1.25-1.64q13.86-13.08,26.94-26.94c4.5-3.74,4.5-3.74,9,0,4.36,2.53,7.18,6.74,10.84,10a57.14,57.14,0,0,1,4.45,4.49c.86,1,2.19,1.85,1.2,3.48C392.43,250.73,387.51,255.8,382.66,261Z" transform="translate(-107.26 -160.61)"/><path class="cls-1" d="M395.38,225.81c-2.75-2.87-5.46-5.78-8.29-8.56-1.25-1.24-1.51-2-.35-3.67,5.93-8.56,6.9-8.72,14.11-1.57q13,12.88,26,25.72c5.67,5.76,11.27,11.59,17,17.25,1.72,1.69,2,2.82,0,4.42-2.59,2.09-4.41,6.29-7.36,6.38-2.76.08-4.72-4-7-6.18-4.94-4.74-9.79-9.56-14.68-14.34-4.37-2.68-7.45-6.76-11-10.29C400.88,232.05,397.44,229.56,395.38,225.81Z" transform="translate(-107.26 -160.61)"/><path class="cls-2" d="M395.38,225.81c6.73,6.24,13.24,12.7,19.46,19.45-5.66,1.59-11.44.32-17.14.74.23-1.66-1.18-2.33-2.08-3.25-4.78-4.94-9.6-9.84-14.41-14.75.37-2.06,2-1.34,3.24-1.45C388.09,226.2,391.82,227.28,395.38,225.81Z" transform="translate(-107.26 -160.61)"/><path class="cls-2" d="M230.11,254.25c-.24.7-.53,1.39-.72,2.1-.58,2.28-2.09,4.55-1.53,6.83.63,2.56,3.74,2.37,5.64,3.58A24.91,24.91,0,0,1,244.88,284c.44,2.34-.13,3.59-2.79,3.22a11.89,11.89,0,0,0-3,0c-3.75.47-6.16-.16-7.23-4.69-1.11-4.72-6.48-7.53-11.42-7.3a11.18,11.18,0,0,0-10.64,8.44c-.75,3.15-2.18,4-5,3.55a15.08,15.08,0,0,0-2.23,0c-6.25,0-6.37,0-4.61-6.19a23,23,0,0,1,14.45-16c2.33-.88,3.3-2,3.54-4.47a16,16,0,0,1,2.07-7.07C222,253.86,226.17,252.64,230.11,254.25Z" transform="translate(-107.26 -160.61)"/><path class="cls-2" d="M400.61,412.86a17.95,17.95,0,1,1-17.91,17.79A18.06,18.06,0,0,1,400.61,412.86Z" transform="translate(-107.26 -160.61)"/><path class="cls-4" d="M406.63,431a6,6,0,1,1-5.72-6.14A6.08,6.08,0,0,1,406.63,431Z" transform="translate(-107.26 -160.61)"/><path class="cls-5" d="M170.93,373.31" transform="translate(-107.26 -160.61)"/><path class="cls-6" d="M319.92,362" transform="translate(-107.26 -160.61)"/><path class="cls-6" d="M218.79,373.31" transform="translate(-107.26 -160.61)"/><polyline class="cls-6" points="216.56 198.94 212.44 198.94 205.57 198.13"/></svg>