<svg xmlns="http://www.w3.org/2000/svg" xmlns:xlink="http://www.w3.org/1999/xlink" viewBox="0 0 1200 800"><defs><style>.cls-1{fill:none;}.cls-2{isolation:isolate;}.cls-3{fill:#ebeff2;}.cls-4,.cls-92{fill:#d8dee8;}.cls-5{clip-path:url(#clip-path);}.cls-6{fill:url(#linear-gradient);}.cls-7{fill:#beb8f2;}.cls-8{fill:url(#linear-gradient-2);}.cls-9{clip-path:url(#clip-path-2);}.cls-10{fill:#fcfdfe;}.cls-11{fill:url(#linear-gradient-3);}.cls-12{clip-path:url(#clip-path-3);}.cls-13{clip-path:url(#clip-path-4);}.cls-14{fill:url(#linear-gradient-4);}.cls-15{fill:url(#linear-gradient-5);}.cls-16{fill:url(#linear-gradient-6);}.cls-17{fill:url(#linear-gradient-7);}.cls-18{clip-path:url(#clip-path-5);}.cls-19{fill:#97a6b7;}.cls-20{fill:url(#linear-gradient-8);}.cls-21{fill:url(#linear-gradient-9);}.cls-22{fill:#fff;}.cls-23{fill:url(#linear-gradient-10);}.cls-24{fill:#9d3060;}.cls-25{fill:#f4f7fa;}.cls-26{fill:#c281e8;}.cls-27{fill:url(#linear-gradient-11);}.cls-28{fill:url(#linear-gradient-12);}.cls-29{fill:url(#linear-gradient-13);}.cls-30{fill:url(#linear-gradient-14);}.cls-31{fill:url(#linear-gradient-15);}.cls-32{fill:#fc78ac;}.cls-33{fill:url(#linear-gradient-16);}.cls-34{fill:url(#linear-gradient-17);}.cls-35{fill:url(#linear-gradient-18);}.cls-106,.cls-36,.cls-42,.cls-44,.cls-56,.cls-62,.cls-67,.cls-77,.cls-88,.cls-92{mix-blend-mode:multiply;}.cls-106,.cls-36,.cls-88{opacity:0.25;}.cls-36{fill:url(#linear-gradient-19);}.cls-37{fill:url(#linear-gradient-20);}.cls-38{fill:url(#linear-gradient-21);}.cls-39{fill:url(#linear-gradient-22);}.cls-40{fill:url(#linear-gradient-23);}.cls-41{fill:url(#linear-gradient-24);}.cls-42,.cls-67{opacity:0.3;}.cls-42{fill:url(#linear-gradient-25);}.cls-43{fill:url(#linear-gradient-26);}.cls-44{opacity:0.4;fill:url(#linear-gradient-27);}.cls-45{fill:url(#linear-gradient-28);}.cls-46{fill:url(#linear-gradient-29);}.cls-47{fill:url(#linear-gradient-30);}.cls-48{fill:url(#linear-gradient-31);}.cls-49{fill:url(#linear-gradient-32);}.cls-50{fill:url(#linear-gradient-33);}.cls-51{fill:url(#linear-gradient-34);}.cls-52{fill:#b7c0ce;}.cls-53{fill:url(#linear-gradient-35);}.cls-54{fill:url(#linear-gradient-36);}.cls-55{fill:url(#linear-gradient-37);}.cls-56{opacity:0.24;}.cls-57{fill:#552d63;}.cls-58{fill:url(#linear-gradient-38);}.cls-59{fill:url(#linear-gradient-39);}.cls-60{fill:url(#linear-gradient-40);}.cls-61{fill:url(#linear-gradient-41);}.cls-62{opacity:0.2;}.cls-63{fill:url(#linear-gradient-42);}.cls-64{fill:url(#linear-gradient-43);}.cls-65{fill:url(#linear-gradient-44);}.cls-66{fill:url(#linear-gradient-45);}.cls-68{fill:url(#linear-gradient-46);}.cls-69{fill:url(#linear-gradient-47);}.cls-70{fill:url(#linear-gradient-48);}.cls-71{fill:#ae87f9;}.cls-72{fill:#26264f;}.cls-73{fill:#444b8c;}.cls-74{fill:url(#linear-gradient-49);}.cls-75{fill:#1f1f44;}.cls-76{fill:url(#linear-gradient-50);}.cls-77{opacity:0.55;fill:url(#linear-gradient-51);}.cls-78{fill:url(#linear-gradient-52);}.cls-79{fill:url(#linear-gradient-53);}.cls-80{fill:url(#linear-gradient-54);}.cls-81{fill:url(#linear-gradient-55);}.cls-82{fill:url(#linear-gradient-56);}.cls-83{fill:url(#linear-gradient-57);}.cls-84{fill:url(#linear-gradient-58);}.cls-85{fill:url(#linear-gradient-59);}.cls-86{fill:url(#linear-gradient-60);}.cls-87{fill:url(#linear-gradient-61);}.cls-88{fill:url(#linear-gradient-62);}.cls-89{fill:url(#linear-gradient-63);}.cls-90{fill:url(#linear-gradient-64);}.cls-91{fill:url(#linear-gradient-65);}.cls-93{fill:url(#linear-gradient-66);}.cls-94{fill:url(#linear-gradient-67);}.cls-95{fill:#de8bdf;}.cls-96{fill:url(#linear-gradient-68);}.cls-97{fill:url(#linear-gradient-69);}.cls-98{fill:url(#linear-gradient-70);}.cls-99{fill:url(#linear-gradient-71);}.cls-100{fill:url(#linear-gradient-72);}.cls-101{fill:url(#linear-gradient-73);}.cls-102{fill:url(#linear-gradient-74);}.cls-103{fill:url(#linear-gradient-75);}.cls-104{fill:url(#linear-gradient-76);}.cls-105{fill:url(#linear-gradient-77);}.cls-106{fill:url(#linear-gradient-78);}.cls-107{fill:url(#linear-gradient-79);}.cls-108{fill:url(#linear-gradient-80);}.cls-109{fill:url(#linear-gradient-81);}.cls-110{fill:#ea645e;}.cls-111{fill:url(#linear-gradient-82);}.cls-112{fill:#ffc244;}.cls-113{fill:#4c53a5;}.cls-114{fill:url(#linear-gradient-83);}.cls-115{fill:url(#linear-gradient-84);}.cls-116{fill:url(#linear-gradient-85);}.cls-117{fill:url(#linear-gradient-86);}.cls-118{fill:url(#linear-gradient-87);}.cls-119{fill:url(#linear-gradient-88);}</style><clipPath id="clip-path"><path class="cls-1" d="M328.18,383.55,379.6,381s8.35-26.87-5.19-44.85c-27.63-36.68,6.43-58.32,19.34-69.51,19.47-16.89,29.26-40.26-1-48.69S390,161.79,425.4,139.05c34.61-22.25,15-96.62-64.3-55.34-47.38,24.65-37.19,75.69-38.18,102.69s-40.84,31.23-25.5,63.38c13.1,27.46,36.33,46.79,20.36,66.93S301.14,358.55,328.18,383.55Z"/></clipPath><linearGradient id="linear-gradient" x1="414.36" y1="126.75" x2="311.86" y2="418.07" gradientTransform="translate(-16.13 -26.02) rotate(-2.89)" gradientUnits="userSpaceOnUse"><stop offset="0" stop-color="#aa80f9"/><stop offset="1" stop-color="#6165d7"/></linearGradient><linearGradient id="linear-gradient-2" x1="346.01" y1="460.97" x2="141.51" y2="107.34" gradientTransform="translate(-16.13 -26.02) rotate(-2.89)" gradientUnits="userSpaceOnUse"><stop offset="0" stop-color="#ffc444"/><stop offset="1" stop-color="#f36f56"/></linearGradient><clipPath id="clip-path-2"><path class="cls-1" d="M324.16,537.59l54.26-9.36s16.92-38.7-1.86-50.91-8.15-49.82-4.81-70.54c9.06-56.2-52.48-56-46.61-129.19,1.57-19.46,11.05-56-4.09-72.87-17.25-19.18-32.3-3-43.12-18.71-16.9-24.6-46.71-35.35-66.81-13.08-19.83,22-1.84,70.4,49.27,112.31,33.27,34.21,33.06,43.63,28.39,66.22-3.27,15.82-21.91,56.23-1.56,74.62s35.47,37.71,25.64,55.08C297.91,507.6,324.16,537.59,324.16,537.59Z"/></clipPath><linearGradient id="linear-gradient-3" x1="230.2" y1="395.26" x2="344.2" y2="582.94" gradientTransform="translate(-16.13 -26.02) rotate(-2.89)" gradientUnits="userSpaceOnUse"><stop offset="0" stop-color="#e38ddd"/><stop offset="1" stop-color="#9571f6"/></linearGradient><clipPath id="clip-path-3"><path class="cls-1" d="M314,538.68l50.3-2.53c2.57-7.27,5.65-20.59-5-23.3C344.43,509.08,343,483.3,346.61,474c4.5-11.51,14.42-38.53-8.46-44.71-19-5.14-32.39-4.57-34.73-28.71s-16.2-38.67-38.08-36.3c-23,2.5-43.27-27.44-61.75-16.35-32.21,19.32-.07,71.37,40.68,85.11s18.36,29.17,18.12,49c-.32,27.1,36,19.77,46.08,30C316.39,520,315.48,531.58,314,538.68Z"/></clipPath><clipPath id="clip-path-4"><path class="cls-1" d="M818.8,467.62q-24.36-1.12-48.76-3.37c-.24.26-9-34,5.74-53.89,29.14-38.6,4-68.12-4.2-86.28-12.7-25.5-10.77-58.22,19-55.11,29,2.35,27.42-56.62,18-101.23-6.38-21.53,11.66-50.23,31.72-58.39,20.43-8.85,42.86,2.85,53.69,46C908.84,205,874.93,239.23,863.78,266c-11,26.28,22.37,43.32-.64,67.93-19.25,21.75-44.58,38.54-32.33,62.22C843.3,419.52,842.88,439.69,818.8,467.62Z"/></clipPath><linearGradient id="linear-gradient-4" x1="1637.12" y1="262.61" x2="1521.64" y2="590.79" gradientTransform="matrix(-0.91, -0.41, -0.41, 0.91, 2442.48, 546.06)" xlink:href="#linear-gradient"/><linearGradient id="linear-gradient-5" x1="834.45" y1="466.93" x2="915.02" y2="494.01" gradientUnits="userSpaceOnUse"><stop offset="0" stop-color="#ab316d"/><stop offset="1" stop-color="#792d3d"/></linearGradient><linearGradient id="linear-gradient-6" x1="826.26" y1="430.59" x2="889.47" y2="430.59" gradientTransform="matrix(1, 0, 0, 1, 0, 0)" xlink:href="#linear-gradient-2"/><linearGradient id="linear-gradient-7" x1="806.12" y1="301.45" x2="960.04" y2="301.45" gradientTransform="matrix(1, 0, 0, 1, 0, 0)" xlink:href="#linear-gradient-2"/><clipPath id="clip-path-5"><path class="cls-1" d="M891.12,431.7l-57.79,19.16c-6.08-7.06-15.38-20.73-4.52-28.46,15.09-10.74,5.44-40.44-2.72-49.33C816,362.07,793,336,816.05,319c19.21-14.13,34.49-19.33,26.57-47.56s1.32-50.66,27-57.57c27-7.27,36.75-49.86,62.43-45.46,44.74,7.68,31.31,80.4-8.59,113.72s-7.92,40.9,1,63.16c12.23,30.39-31.88,38-38.8,54C880.29,411.72,886.37,424.33,891.12,431.7Z"/></clipPath><linearGradient id="linear-gradient-8" x1="606.94" y1="498.43" x2="608.47" y2="555.74" gradientUnits="userSpaceOnUse"><stop offset="0.49" stop-color="#ebeff2"/><stop offset="1" stop-color="#fff"/></linearGradient><linearGradient id="linear-gradient-9" x1="619.41" y1="427.19" x2="451.01" y2="-164.05" gradientUnits="userSpaceOnUse"><stop offset="0" stop-color="#444b8c"/><stop offset="1" stop-color="#26264f"/></linearGradient><linearGradient id="linear-gradient-10" x1="450.99" y1="44.84" x2="757.9" y2="374.36" gradientTransform="matrix(1, 0, 0, 1, 0, 0)" xlink:href="#linear-gradient-2"/><linearGradient id="linear-gradient-11" x1="551.98" y1="391.28" x2="779.88" y2="391.28" gradientTransform="matrix(1, 0, 0, 1, 0, -1.39)" xlink:href="#linear-gradient"/><linearGradient id="linear-gradient-12" x1="404" y1="348.63" x2="413.92" y2="348.63" gradientTransform="matrix(1, 0, 0, 1, 0, -1.39)" gradientUnits="userSpaceOnUse"><stop offset="0" stop-color="#ff9085"/><stop offset="1" stop-color="#fb6fbb"/></linearGradient><linearGradient id="linear-gradient-13" x1="475.87" y1="375.68" x2="485.51" y2="375.68" xlink:href="#linear-gradient-12"/><linearGradient id="linear-gradient-14" x1="459.62" y1="358.66" x2="469.33" y2="358.66" xlink:href="#linear-gradient-12"/><linearGradient id="linear-gradient-15" x1="420.33" y1="376.83" x2="430.19" y2="376.83" xlink:href="#linear-gradient-12"/><linearGradient id="linear-gradient-16" x1="406.04" y1="765.22" x2="416.72" y2="765.22" gradientTransform="translate(-71.51 -48.3) rotate(-6.92)" xlink:href="#linear-gradient"/><linearGradient id="linear-gradient-17" x1="426.43" y1="768.32" x2="437.12" y2="768.32" gradientTransform="translate(-71.51 -48.3) rotate(-6.92)" xlink:href="#linear-gradient"/><linearGradient id="linear-gradient-18" x1="388.57" y1="688.4" x2="453.51" y2="688.4" gradientTransform="translate(-71.51 -48.3) rotate(-6.92)" xlink:href="#linear-gradient-9"/><linearGradient id="linear-gradient-19" x1="394.02" y1="583.32" x2="456.75" y2="583.32" xlink:href="#linear-gradient-9"/><linearGradient id="linear-gradient-20" x1="522.62" y1="471.42" x2="400.68" y2="407.16" gradientUnits="userSpaceOnUse"><stop offset="0" stop-color="#311944"/><stop offset="1" stop-color="#6b3976"/></linearGradient><linearGradient id="linear-gradient-21" x1="521.23" y1="474.06" x2="399.29" y2="409.8" xlink:href="#linear-gradient-20"/><linearGradient id="linear-gradient-22" x1="-195.28" y1="299.51" x2="-175.92" y2="299.51" gradientTransform="translate(541.68 193.35) rotate(1.92)" xlink:href="#linear-gradient-2"/><linearGradient id="linear-gradient-23" x1="138.42" y1="449.92" x2="184.81" y2="475.28" gradientTransform="matrix(1, -0.07, 0.07, 1, 175.96, 6.01)" xlink:href="#linear-gradient"/><linearGradient id="linear-gradient-24" x1="580.24" y1="352.1" x2="686.33" y2="419.33" gradientTransform="translate(-115.56 39.24) rotate(8.4)" xlink:href="#linear-gradient"/><linearGradient id="linear-gradient-25" x1="413.87" y1="465.83" x2="514.42" y2="529.54" gradientTransform="matrix(1, 0, 0, 1, 0, 0)" xlink:href="#linear-gradient"/><linearGradient id="linear-gradient-26" x1="236.9" y1="415.09" x2="238.85" y2="363.28" gradientTransform="matrix(-1, 0.09, 0.09, 1, 623.11, 21.49)" xlink:href="#linear-gradient-2"/><linearGradient id="linear-gradient-27" x1="422.64" y1="448.33" x2="424.24" y2="405.9" gradientTransform="matrix(1, 0, 0, 1, 0, 0)" xlink:href="#linear-gradient-2"/><linearGradient id="linear-gradient-28" x1="-64.52" y1="379.83" x2="-65.05" y2="422.1" gradientTransform="matrix(-1, 0, 0, 1.04, 352.52, 14.79)" xlink:href="#linear-gradient-2"/><linearGradient id="linear-gradient-29" x1="525.3" y1="466.33" x2="403.37" y2="402.07" xlink:href="#linear-gradient-20"/><linearGradient id="linear-gradient-30" x1="-551.89" y1="-248.14" x2="-530.66" y2="-248.14" gradientTransform="translate(863.54 862.78) rotate(13.56)" xlink:href="#linear-gradient-2"/><linearGradient id="linear-gradient-31" x1="438.98" y1="-152.02" x2="472.87" y2="-113.27" gradientTransform="matrix(0.79, 0.61, -0.67, 0.91, -20.51, 319.7)" xlink:href="#linear-gradient"/><linearGradient id="linear-gradient-32" x1="522.74" y1="471.19" x2="400.8" y2="406.93" xlink:href="#linear-gradient-20"/><linearGradient id="linear-gradient-33" x1="448.24" y1="574.78" x2="244.5" y2="475.58" gradientUnits="userSpaceOnUse"><stop offset="0" stop-color="#311944"/><stop offset="1" stop-color="#893976"/></linearGradient><linearGradient id="linear-gradient-34" x1="658.97" y1="656.33" x2="301.89" y2="506.66" xlink:href="#linear-gradient-33"/><linearGradient id="linear-gradient-35" x1="-963.82" y1="325.6" x2="-945.7" y2="325.6" gradientTransform="matrix(0.85, -0.52, 0.52, 0.85, 1356.82, -572.25)" gradientUnits="userSpaceOnUse"><stop offset="0" stop-color="#40447e"/><stop offset="1" stop-color="#3c3b6b"/></linearGradient><linearGradient id="linear-gradient-36" x1="1242.46" y1="-285.86" x2="1388.33" y2="-134.49" gradientTransform="translate(-568.08 -71.13) rotate(23.21)" xlink:href="#linear-gradient-2"/><linearGradient id="linear-gradient-37" x1="847.2" y1="-92.41" x2="995.97" y2="-13.39" gradientTransform="translate(-255.04 -5.16) rotate(14.08)" xlink:href="#linear-gradient-20"/><linearGradient id="linear-gradient-38" x1="206.89" y1="243.47" x2="225" y2="243.47" gradientTransform="translate(450.87 -76.91) rotate(-4.54)" xlink:href="#linear-gradient-35"/><linearGradient id="linear-gradient-39" x1="938.1" y1="-85.07" x2="1120.5" y2="104.21" gradientTransform="translate(-255.04 -5.16) rotate(14.08)" xlink:href="#linear-gradient-2"/><linearGradient id="linear-gradient-40" x1="835.14" y1="-69.91" x2="946.05" y2="-80.72" gradientTransform="translate(-255.04 -5.16) rotate(14.08)" xlink:href="#linear-gradient-20"/><linearGradient id="linear-gradient-41" x1="792.29" y1="-49.35" x2="927.19" y2="-74.41" gradientTransform="translate(-255.04 -5.16) rotate(14.08)" xlink:href="#linear-gradient-33"/><linearGradient id="linear-gradient-42" x1="840.62" y1="-65.77" x2="922.24" y2="-83.21" gradientTransform="translate(-255.04 -5.16) rotate(14.08)" xlink:href="#linear-gradient-20"/><linearGradient id="linear-gradient-43" x1="794.71" y1="-57.83" x2="923.27" y2="-81.72" gradientTransform="translate(-255.04 -5.16) rotate(14.08)" xlink:href="#linear-gradient-33"/><linearGradient id="linear-gradient-44" x1="-16.46" y1="281.42" x2="-45.36" y2="213" gradientTransform="translate(637.58 -115.3) rotate(-6.78)" xlink:href="#linear-gradient-12"/><linearGradient id="linear-gradient-45" x1="1146.78" y1="-267.3" x2="1133.34" y2="-319.87" gradientTransform="matrix(0.93, 0.37, -0.37, 0.93, -578.73, -42.1)" xlink:href="#linear-gradient-12"/><linearGradient id="linear-gradient-46" x1="1146.26" y1="-267.55" x2="1132.03" y2="-323.2" gradientTransform="matrix(0.93, 0.37, -0.37, 0.93, -578.73, -42.1)" xlink:href="#linear-gradient-12"/><linearGradient id="linear-gradient-47" x1="1143.52" y1="-285.57" x2="1182.79" y2="-295.99" gradientTransform="matrix(0.93, 0.37, -0.37, 0.93, -578.73, -42.1)" xlink:href="#linear-gradient-2"/><linearGradient id="linear-gradient-48" x1="1129.83" y1="-254.58" x2="1113.52" y2="-318.37" gradientTransform="matrix(0.93, 0.37, -0.37, 0.93, -578.73, -42.1)" xlink:href="#linear-gradient-12"/><linearGradient id="linear-gradient-49" x1="616.78" y1="68.02" x2="659.2" y2="68.02" gradientTransform="matrix(1, 0.05, -0.05, 1, -2.92, 17.39)" xlink:href="#linear-gradient-35"/><linearGradient id="linear-gradient-50" x1="1242.51" y1="-410.48" x2="1243.92" y2="-448.11" gradientTransform="translate(-708.06 -71.13) rotate(24.98)" xlink:href="#linear-gradient-2"/><linearGradient id="linear-gradient-51" x1="558.98" y1="84.86" x2="559.84" y2="61.96" gradientTransform="translate(43.95 -0.52) rotate(-0.85)" xlink:href="#linear-gradient-2"/><linearGradient id="linear-gradient-52" x1="-2290.62" y1="-526.3" x2="-2302.83" y2="-557.3" gradientTransform="matrix(-0.88, -0.48, -0.48, 0.88, -1679.13, -564.41)" xlink:href="#linear-gradient-20"/><linearGradient id="linear-gradient-53" x1="1241.93" y1="-443.8" x2="1241.38" y2="-399.15" gradientTransform="translate(-708.06 -71.13) rotate(24.98)" xlink:href="#linear-gradient-2"/><linearGradient id="linear-gradient-54" x1="479.69" y1="216.56" x2="512.11" y2="276.64" gradientUnits="userSpaceOnUse"><stop offset="0" stop-color="#311944"/><stop offset="1" stop-color="#a03976"/></linearGradient><linearGradient id="linear-gradient-55" x1="463.66" y1="204.56" x2="626.51" y2="390.07" gradientTransform="matrix(1, 0, 0, 1, 0, 0)" xlink:href="#linear-gradient-2"/><linearGradient id="linear-gradient-56" x1="-506.15" y1="682.74" x2="-506.15" y2="675.53" gradientTransform="translate(839.12 -329.04) rotate(-20.77)" xlink:href="#linear-gradient-54"/><linearGradient id="linear-gradient-57" x1="-357.21" y1="494.94" x2="-357.21" y2="487.2" gradientTransform="translate(917.43)" xlink:href="#linear-gradient-54"/><linearGradient id="linear-gradient-58" x1="431.12" y1="242.76" x2="463.53" y2="302.84" xlink:href="#linear-gradient-54"/><linearGradient id="linear-gradient-59" x1="431.36" y1="232.92" x2="594.21" y2="418.43" gradientTransform="matrix(1, 0, 0, 1, 0, 0)" xlink:href="#linear-gradient-2"/><linearGradient id="linear-gradient-60" x1="446.31" y1="219.79" x2="609.15" y2="405.3" gradientTransform="matrix(1, 0, 0, 1, 0, 0)" xlink:href="#linear-gradient-2"/><linearGradient id="linear-gradient-61" x1="523.46" y1="305.37" x2="523.19" y2="275.07" xlink:href="#linear-gradient-54"/><linearGradient id="linear-gradient-62" x1="455.17" y1="213.29" x2="617.34" y2="398.04" gradientTransform="matrix(1, 0, 0, 1, 0, 0)" xlink:href="#linear-gradient-2"/><linearGradient id="linear-gradient-63" x1="515.23" y1="229.19" x2="581.55" y2="320.68" xlink:href="#linear-gradient-9"/><linearGradient id="linear-gradient-64" x1="521.18" y1="305.39" x2="520.91" y2="275.09" xlink:href="#linear-gradient-54"/><linearGradient id="linear-gradient-65" x1="22.29" y1="-623.65" x2="65.41" y2="-623.65" gradientTransform="matrix(0.33, 1.01, -0.57, 0.29, 140.52, 754.84)" xlink:href="#linear-gradient-12"/><linearGradient id="linear-gradient-66" x1="723.17" y1="427.74" x2="979.7" y2="417.93" gradientTransform="matrix(1, 0, 0.12, 1, -53.38, 0.31)" xlink:href="#linear-gradient-9"/><linearGradient id="linear-gradient-67" x1="722.06" y1="435.15" x2="853.56" y2="435.15" gradientTransform="matrix(1, -0.01, 0.12, 1, -52.93, 5.04)" xlink:href="#linear-gradient-12"/><linearGradient id="linear-gradient-68" x1="751.23" y1="443.66" x2="759.93" y2="443.66" gradientTransform="matrix(1, -0.01, 0.12, 1, -52.93, 5.04)" xlink:href="#linear-gradient-12"/><linearGradient id="linear-gradient-69" x1="765.56" y1="470.93" x2="774.21" y2="470.93" gradientTransform="matrix(1, -0.01, 0.12, 1, -52.93, 5.04)" xlink:href="#linear-gradient-12"/><linearGradient id="linear-gradient-70" x1="802.33" y1="452.41" x2="810.85" y2="452.41" gradientTransform="matrix(1, -0.01, 0.12, 1, -52.93, 5.04)" xlink:href="#linear-gradient-12"/><linearGradient id="linear-gradient-71" x1="816.52" y1="469.76" x2="824.99" y2="469.76" gradientTransform="matrix(1, -0.01, 0.12, 1, -52.93, 5.04)" xlink:href="#linear-gradient-12"/><linearGradient id="linear-gradient-72" x1="972.08" y1="888.12" x2="797.03" y2="536.55" xlink:href="#linear-gradient-54"/><linearGradient id="linear-gradient-73" x1="832.6" y1="603.66" x2="798.71" y2="535.59" gradientTransform="matrix(1, 0, 0, 1, 0, 0)" xlink:href="#linear-gradient-12"/><linearGradient id="linear-gradient-74" x1="884.44" y1="768.39" x2="816.71" y2="661.96" gradientTransform="translate(-15.9 -11.9) rotate(-9.13)" gradientUnits="userSpaceOnUse"><stop offset="0" stop-color="#40447e"/><stop offset="1" stop-color="#1c2c5a"/></linearGradient><linearGradient id="linear-gradient-75" x1="598.79" y1="732.26" x2="615.98" y2="790.52" gradientTransform="translate(177.83 -92.8) rotate(-10.52)" xlink:href="#linear-gradient-35"/><linearGradient id="linear-gradient-76" x1="586.06" y1="825.59" x2="584.92" y2="881.65" gradientTransform="translate(177.83 -92.8) rotate(-10.52)" xlink:href="#linear-gradient-5"/><linearGradient id="linear-gradient-77" x1="591.98" y1="825.62" x2="590.84" y2="882.05" gradientTransform="translate(177.83 -92.8) rotate(-10.52)" xlink:href="#linear-gradient-5"/><linearGradient id="linear-gradient-78" x1="912.64" y1="508.03" x2="930.24" y2="567.68" gradientTransform="matrix(1, 0, 0, 1, 0, 0)" xlink:href="#linear-gradient-35"/><linearGradient id="linear-gradient-79" x1="92.74" y1="1021.6" x2="111.4" y2="1021.6" gradientTransform="translate(169.59 -267.16) rotate(-35.84)" xlink:href="#linear-gradient-54"/><linearGradient id="linear-gradient-80" x1="623.24" y1="628.46" x2="653.11" y2="644.79" gradientTransform="translate(90.35 -4.09) rotate(-13.9)" xlink:href="#linear-gradient"/><linearGradient id="linear-gradient-81" x1="1071.44" y1="411.19" x2="1173.7" y2="475.99" gradientTransform="translate(-192.02 80.23) rotate(-1.73)" xlink:href="#linear-gradient"/><linearGradient id="linear-gradient-82" x1="878.41" y1="467.12" x2="1008.9" y2="467.12" gradientTransform="matrix(1, 0, 0, 1, 0, 0)" xlink:href="#linear-gradient-12"/><linearGradient id="linear-gradient-83" x1="-681.18" y1="1069.42" x2="-662.52" y2="1069.42" gradientTransform="matrix(0.45, -0.89, 0.89, 0.45, 299.68, -584.88)" xlink:href="#linear-gradient-54"/><linearGradient id="linear-gradient-84" x1="1089.2" y1="225.34" x2="1131.49" y2="273.71" gradientTransform="matrix(1, -0.02, 0.05, 1.13, -174.67, 196.04)" xlink:href="#linear-gradient"/><linearGradient id="linear-gradient-85" x1="834.38" y1="720.17" x2="877.04" y2="760.45" gradientTransform="translate(-15.9 -11.9) rotate(-9.13)" xlink:href="#linear-gradient-5"/><linearGradient id="linear-gradient-86" x1="836.38" y1="718.05" x2="879.04" y2="758.33" gradientTransform="translate(-15.9 -11.9) rotate(-9.13)" xlink:href="#linear-gradient-5"/><linearGradient id="linear-gradient-87" x1="-1218.09" y1="883.9" x2="-1216.3" y2="836.34" gradientTransform="matrix(-0.93, 0.38, 0.38, 0.93, -552.71, 77.74)" xlink:href="#linear-gradient-33"/><linearGradient id="linear-gradient-88" x1="-736.99" y1="602.39" x2="-737.94" y2="575.15" gradientTransform="matrix(-0.98, 0.21, 0.21, 0.98, 57.17, -5.71)" xlink:href="#linear-gradient-54"/></defs><g class="cls-2"><g id="Background"><rect class="cls-1" width="1200" height="800"/></g><g id="Illustration"><path class="cls-3" d="M342.62,520.31c-26.9,1.71-46.72,5.13-53.14,6.07-68.15,9.94-108.25,4.8-169,26.7-1.88.68-36.37,13.24-34.95,19.76,1.65,7.55,48.6-6.92,95.36,16.46,15.19,7.6,29.43,13.05,36.84,27.6,11.79,23.18-6.08,41.77,5.19,64,6.38,12.57,17,16.29,45.68,29.42,65.23,29.89,56.84,32,79.74,39.48,38.17,12.43,133.16.78,133.16.78,83.94-10.29,86.26-4.34,114.58-15.49,35-13.78,32.63-23.34,65-37.93,37.37-16.82,56.86-11.44,157.94-15.48,101.29-4,68.75-8.94,127.69-9.67,11.28-.14,98.51-2.1,117.43-28.92a17.85,17.85,0,0,0,1.85-3.37c8-18.79-17-36.38-7.6-54.7,13.36-26.07,74.38-14,76.86-25.83,2.89-13.76-60.78-34.95-60.78-34.95C924.86,480.8,828,487,828,487c-167,0-286.05,21-460.47,31.72C359.2,519.23,350.91,519.78,342.62,520.31Z"/><path class="cls-4" d="M587.68,520.31c-58.26,11.77-153.2,2.16-263,14.68-78.55,9-135,25.84-134.28,32s55.14-6.77,115.1,21.32c5.19,2.43,16.68,3.53,19.2,10.88,5,14.69-29.71,32.54-25.53,44.94,3.59,10.65,30.39.76,63.48,12C397.45,667.93,403.18,691,443,712.87A184.69,184.69,0,0,0,492,731c.91.21,1.72.34,2.6.49,31.82,5.33,82.78-18,86.2-47,2.66-22.61-24.75-38.88-18.07-48.51,1.21-1.74,3.14-2.7,35.77-3.36,15.47-.32,21,.19,30.86-1,11.16-1.35,19.18-2.21,23.85-2.93,24.9-3.78,46.67-5.06,60.49-5.86a568.66,568.66,0,0,1,61.62.17c70.59,4.7,77.59,28.53,131.93,31.57,53.44,3,104.29-21.34,104.77-39.17.24-9.21-13.16-12.79-12.57-22.79,1.23-21,58.27-23.68,59.26-36.47,2.1-27.28-253.1-71.33-327-46.71-7.87,2.62-25.28,9.89-50,10.21-20.92.26-30.62-4.66-56-4.07A197.43,197.43,0,0,0,587.68,520.31Z"/><g class="cls-5"><path class="cls-6" d="M328.18,383.55,379.6,381s8.35-26.87-5.19-44.85c-27.63-36.68,6.43-58.32,19.34-69.51,19.47-16.89,27.37-37.83,2.32-49.9-28.33-13.65-6-54.91,29.33-77.65,34.61-22.25,15-96.62-64.3-55.34-47.38,24.65-37.19,75.69-38.18,102.69s-40.84,31.23-25.5,63.38c13.1,27.46,36.33,46.79,20.36,66.93S301.14,358.55,328.18,383.55Z"/><path class="cls-7" d="M350.68,387.2c-.16-.66-15.43-66.45-10.91-136.25,2.66-41,11.54-75.41,26.39-102.17,18.59-33.51,46.63-55.11,83.33-64.2l.26,1C367.28,106.07,345,186.85,340.86,251,336.34,320.66,351.58,386.3,351.73,387Z"/><path class="cls-7" d="M359,163.11c-6.31-35.83,4.82-87.66,4.94-88.18l1.06.23c-.12.52-11.21,52.14-4.94,87.77Z"/><path class="cls-7" d="M372,141.13l-.62-.89c35.83-24.91,71-15.57,71.35-15.47l-.29,1C442.08,125.72,407.39,116.52,372,141.13Z"/><path class="cls-7" d="M340.38,296.69l-1.06-.2c9.65-52.29,79.52-68.8,80.2-68.84l.05,1.09,0-.55.06.54a148.23,148.23,0,0,0-36.66,14.92C366.22,253.25,345.26,270.24,340.38,296.69Z"/><path class="cls-7" d="M339,275c-8.38-32.07-44.76-52.66-45.13-52.87l.53-.94c.37.2,37.16,21,45.65,53.53Z"/><path class="cls-7" d="M349.56,376.57l-1.08,0c.58-20.59,27.84-37.57,29-38.28l.57.93C377.77,339.36,350.12,356.57,349.56,376.57Z"/><path class="cls-7" d="M345.75,361.07c-3.35-15-27.49-31-35.43-36.25a23.74,23.74,0,0,1-2.43-1.69l.77-.76c.15.15,1.13.8,2.26,1.55,8,5.31,32.44,21.47,35.89,36.91Z"/></g><path class="cls-8" d="M312.86,481.16c-8.6,15.2-2.91,31.56,2.91,42.74a15.81,15.81,0,0,1,4.07,1.18c14.25,4.72,21.22,3.47,35.92,5.74,3.17.49,12.81-1.11,16.71-2l7.25-1.85s15.62-37.4-3.16-49.61-8.15-49.82-4.81-70.54c9.06-56.2-52.48-56-46.61-129.19,1.57-19.46,11.05-56-4.09-72.87-17.25-19.18-32.3-3-43.12-18.71-16.9-24.6-46.71-35.35-66.81-13.08-19.83,22-1.84,70.4,49.27,112.31,33.27,34.21,33.06,43.63,28.39,66.22-3.27,15.82-21.91,56.23-1.56,74.62S322.69,463.79,312.86,481.16Z"/><g class="cls-9"><path class="cls-10" d="M348,530.79c-.28-6.48-.64-13-1.08-19.44-3.21-47.45-10.73-92.88-22.36-135a548.79,548.79,0,0,0-38.43-100.64,458.66,458.66,0,0,0-42.78-69.3,366.32,366.32,0,0,0-34.75-40.06c-2.06-2.05-4.3-4-6.46-5.95a118.49,118.49,0,0,1-8.62-8.16l.8-.74c2.64,2.85,5.64,5.51,8.54,8.08,2.17,1.93,4.42,3.93,6.51,6a369.58,369.58,0,0,1,34.85,40.18,459.28,459.28,0,0,1,42.88,69.47A549.53,549.53,0,0,1,325.63,376c11.65,42.23,19.18,87.73,22.4,135.26.43,6.43.8,13,1.07,19.47Z"/><path class="cls-10" d="M303.66,314.34c-16.53-44.24,7.34-121.28,7.59-122l1,.32c-.25.77-24,77.46-7.61,121.34Z"/><path class="cls-10" d="M338.77,441.12c-7.54-30.64-61.93-58.42-62.48-58.7l.49-1c.55.28,55.39,28.28,63,59.41Z"/><path class="cls-10" d="M341.58,459.16c-1.34-21.09,8.07-50.5,26.48-82.79.4-.71.75-1.32.79-1.43l.43.18.63,0c0,.2,0,.2-.91,1.82-18.3,32.11-27.66,61.3-26.33,82.18Z"/><path class="cls-10" d="M347.34,518.94c-7.8-21.13-39.7-31.87-40-32l.34-1c.33.1,32.72,11,40.7,32.64Z"/><path class="cls-10" d="M349.65,531l-1-.32c5.62-17.91,16.55-34.77,33.42-51.54l.77.77C366.06,496.57,355.22,513.28,349.65,531Z"/><path class="cls-10" d="M252.5,218.93c-10.53-24-16-51.62-17.81-60.7-.32-1.58-.57-2.83-.64-3l1-.4c.1.26.26,1,.69,3.22,1.8,9,7.27,36.58,17.75,60.47Z"/><path class="cls-10" d="M275.28,255.25c-15.69-18.17-65.61-21.66-66.11-21.69l.07-1.09c2.07.14,50.88,3.55,66.86,22.07Z"/></g><path class="cls-11" d="M314.46,523.74l.59.23a114.15,114.15,0,0,0,41.46,7l9.28-.74c2.26-7.48,3.06-15-6.5-17.42C344.43,509.08,343,483.3,346.61,474c4.5-11.51,14.42-38.53-8.46-44.71-19-5.14-32.39-4.57-34.73-28.71s-16.2-38.67-38.08-36.3c-23,2.5-43.27-27.44-61.75-16.35-32.21,19.32-.07,71.37,40.68,85.11s18.36,29.17,18.12,49c-.32,27.1,36,19.77,46.08,30A22.26,22.26,0,0,1,314.46,523.74Z"/><g class="cls-12"><path class="cls-10" d="M337.31,529.58c-19.25-77.09-75.83-144.45-147.64-175.81l.44-1C262.22,384.26,319,451.91,338.37,529.31Z"/><path class="cls-10" d="M323.15,488.28c-1.46-31.82,24.57-57.8,24.84-58.06l.76.78c-.26.25-25.95,25.9-24.51,57.23Z"/><path class="cls-10" d="M333.36,515.43c-16.05-26.74-73.33-28-73.91-28l0-1.09c.58,0,58.46,1.31,74.83,28.56Z"/><path class="cls-10" d="M281.31,422.21c-11.29-23.07,2.32-59.77,2.46-60.14l1,.39c-.14.36-13.59,36.63-2.5,59.27Z"/><path class="cls-10" d="M244.84,387c-24.76-13.7-61.83-3.76-62.2-3.66l-.29-1.05c.38-.11,37.87-10.15,63,3.75Z"/></g><g class="cls-13"><path class="cls-14" d="M818.8,467.62q-24.36-1.12-48.76-3.37c-.24.26-9-34,5.74-53.89,29.14-38.6,4-68.12-4.2-86.28-12.59-25.49-10.23-54.69,16.68-57.81,29.79-4,30.26-54.06,20.34-98.53-6.38-21.53,11.66-50.23,31.72-58.39,20.43-8.85,42.86,2.85,53.69,46C908.84,205,874.93,239.23,863.78,266c-11,26.28,22.37,43.32-.64,67.93-19.25,21.75-44.58,38.54-32.33,62.22C843.3,419.52,842.88,439.69,818.8,467.62Z"/><path class="cls-7" d="M796.74,471.91c-.16-1.42,8.5-77.24,27.19-149,2.49-11.89,5.28-23.92,8-35.55,15.05-64.77,29.25-125.94,1-189.55l1-.44c28.41,63.94,14.16,125.29-.92,190.23-2.7,11.63-5.49,23.65-8,35.55C805.76,397,797.83,471.36,797.82,471.83Z"/><path class="cls-7" d="M845.61,227.47l-.87-.65c15.85-21.59,34.55-51.91,44.6-68.2,8.15-13.21,8.19-13.22,8.73-13.17l-.06,1.08,0-.54.3.43c-.48.46-3.83,5.89-8.07,12.77C880.21,175.49,861.49,205.83,845.61,227.47Z"/><path class="cls-7" d="M847.9,199.67c-11-41.11-39.34-55.78-42-56l0-.43-.43-.52c.27-.22.61-.14,1,0,6.32,2,32,17.59,42.49,56.71Z"/><path class="cls-7" d="M814,371.11l-1.08,0c.86-45.74-34.06-84.84-49.11-99.53a13.17,13.17,0,0,1-1.17-1.19l.87-.63c.08.09.53.54,1.06,1.05C779.69,285.58,814.84,325,814,371.11Z"/><path class="cls-7" d="M818.94,348.23l-1-.48c16.07-32.88,56.19-39.16,56.9-39.16h0l.45.46-.31.57-.22-.49v.53C874.42,309.69,834.77,315.84,818.94,348.23Zm55.62-39.6.22.49Z"/><path class="cls-7" d="M798.22,459.68c-.58-9.2-5.43-24.5-25.22-45.17-1.14-1.19-1.14-1.19-1.13-1.47l1.09,0-.55,0,.47-.28c.06.09.45.5.9,1,20,20.9,24.93,36.47,25.52,45.85Z"/><path class="cls-7" d="M801.63,441.92l-1.07-.2c3.11-16.86,24.77-31.13,37.4-38.13l.75-.42.59.91-.82.46C826,411.45,804.66,425.5,801.63,441.92Z"/></g><path class="cls-15" d="M879.31,518c-.32,2.79-1.68,5-3.47,5.74-4.46,1.76-10.23,2.42-17,2.43s-12.71-.69-17.2-2.47c-1.74-.69-3.06-2.82-3.43-5.51l-12-87.22h63.1Z"/><path class="cls-16" d="M889.47,430.59c0,2.81-14.15,5.08-31.6,5.08s-31.61-2.27-31.61-5.08,14.15-5.08,31.61-5.08S889.47,427.79,889.47,430.59Z"/><path class="cls-17" d="M827.78,429.41c1.68,1,5.31,4.44,10.16,4.82,32.24,2.54,45.79-4.11,47-5.08.21-.16-1-13.92-.8-14.1a26.88,26.88,0,0,1,1.61-15.82c6.92-15.93,51-23.56,38.8-54-9-22.26-40.93-29.84-1-63.16s53.33-106,8.59-113.72c-25.68-4.4-35.39,38.19-62.43,45.46-25.7,6.91-34.94,29.34-27,57.57s-7.36,33.43-26.57,47.56c-23.07,17-.07,43.08,10,54.08C834.23,381.93,842.66,418.57,827.78,429.41Z"/><g class="cls-18"><path class="cls-10" d="M859.75,431.78c-5.94-46.93-.82-96.11,14.79-142.21,15.7-46.37,41.62-88.38,74.94-121.49l.71.71c-67.23,66.8-101.5,167.52-89.45,262.86Z"/><path class="cls-10" d="M857.67,379.27c-12.11-36-52.35-53.68-52.76-53.86l.4-.92c.41.18,41.05,18,53.31,54.46Z"/><path class="cls-10" d="M859,413.94l-1-.17C864.5,376,929.08,349.21,929.73,349l.38.92C929.46,350.14,865.4,376.7,859,413.94Z"/><path class="cls-10" d="M876.84,286.12l-1-.09c2.59-30.44-28.48-65.46-28.8-65.81l.75-.67C848.1,219.9,879.46,255.25,876.84,286.12Z"/><path class="cls-10" d="M902.57,230.42l-.77-.64C924,203.15,970.59,198.06,971.06,198l.1,1C970.7,199.06,924.51,204.1,902.57,230.42Z"/></g><path class="cls-19" d="M660,553.87a23.84,23.84,0,0,1-15.82-18L632.4,477.74l-100.54,3.57-12.37,60.6c-1.73,8.49,5.2,17,13.19,20.13l42.06,16.46a54.67,54.67,0,0,0,24.6,3.56l88.89-7.6a5.53,5.53,0,0,0,5-4.89c.3-2.62,2.12-5.56-.36-6.38Z"/><path class="cls-20" d="M661,550.33a23.64,23.64,0,0,1-15.8-17.73l-11.74-57.44-98.09,3.53L523,538.53A17.51,17.51,0,0,0,533.8,558.4l42,16.25a55.21,55.21,0,0,0,24.57,3.52l88.81-7.51A5.48,5.48,0,0,0,690.44,560Z"/><path class="cls-21" d="M821.51,437.3V176.47a10.29,10.29,0,0,0-9.81-10.12l-448.11-18c-6.81-.28-12.41,4.44-12.41,10.47V447.07Z"/><path class="cls-22" d="M365,198.93V424.1c0,5.62,5.19,10.07,11.53,9.89l425.28-12.1a9.51,9.51,0,0,0,9.22-9.38V211.69Z"/><path class="cls-23" d="M811.07,211.69V188.64a9.42,9.42,0,0,0-9-9.26L376.33,163.5c-6.2-.23-11.29,4.08-11.29,9.59v25.84Z"/><path class="cls-24" d="M396.16,181.4a3.6,3.6,0,0,1-3.94,3.37,3.9,3.9,0,0,1-4-3.63,3.61,3.61,0,0,1,4-3.38A3.89,3.89,0,0,1,396.16,181.4Z"/><path class="cls-24" d="M413.15,182a3.56,3.56,0,0,1-3.9,3.36,3.85,3.85,0,0,1-3.9-3.61,3.56,3.56,0,0,1,3.9-3.36A3.86,3.86,0,0,1,413.15,182Z"/><path class="cls-24" d="M429.94,182.51a3.54,3.54,0,0,1-3.85,3.34,3.83,3.83,0,0,1-3.86-3.6,3.54,3.54,0,0,1,3.86-3.34A3.82,3.82,0,0,1,429.94,182.51Z"/><path class="cls-22" d="M351.18,447.07v57.56c0,6,5.6,10.74,12.41,10.45l448.11-19A10.3,10.3,0,0,0,821.51,486V435.63Z"/><path class="cls-25" d="M508.46,417.12l-125.09,2a5.75,5.75,0,0,1-6.05-5.58V327a5.86,5.86,0,0,1,6.05-5.67l125.09.4a5.66,5.66,0,0,1,5.74,5.55v84.17A5.75,5.75,0,0,1,508.46,417.12Z"/><path class="cls-25" d="M797,412.26l-256.23,4.1a5.5,5.5,0,0,1-5.69-5.43V219.27a5.45,5.45,0,0,1,5.69-5.38L797,220.33a5.32,5.32,0,0,1,5.1,5.35V407A5.26,5.26,0,0,1,797,412.26Z"/><path class="cls-25" d="M515.13,302.94a5.59,5.59,0,0,1-5.73,5.49l-125-.73A5.92,5.92,0,0,1,378.3,302V215.5a5.7,5.7,0,0,1,6.05-5.53l125,3.14a5.8,5.8,0,0,1,5.73,5.67Z"/><path class="cls-26" d="M412.63,290.38l-19.06-.18a.4.4,0,0,1-.41-.39v-4.23a.39.39,0,0,1,.41-.38l19.06.2a.4.4,0,0,1,.4.39V290A.39.39,0,0,1,412.63,290.38Z"/><path class="cls-4" d="M469.56,300.28l-76-.57a.4.4,0,0,1-.41-.39v-4.23a.39.39,0,0,1,.41-.38l76,.65a.38.38,0,0,1,.39.38v4.16A.38.38,0,0,1,469.56,300.28Z"/><path class="cls-4" d="M412.63,399.76l-19.06.24a.39.39,0,0,1-.41-.38v-4.23a.4.4,0,0,1,.41-.39l19.06-.22a.39.39,0,0,1,.4.38v4.22A.39.39,0,0,1,412.63,399.76Z"/><path class="cls-4" d="M469.56,408.43l-76,1.08a.39.39,0,0,1-.41-.38V404.9a.4.4,0,0,1,.41-.39l76-1a.38.38,0,0,1,.39.38v4.17A.38.38,0,0,1,469.56,408.43Z"/><polygon class="cls-22" points="802.09 361.87 535.07 363.26 535.07 365.69 802.09 364.17 802.09 361.87"/><path class="cls-4" d="M589.47,344.07l-38.77.05a.38.38,0,0,1-.39-.37v-4.1a.38.38,0,0,1,.39-.38h38.77a.38.38,0,0,1,.38.37v4.07A.38.38,0,0,1,589.47,344.07Z"/><path class="cls-4" d="M620.78,353.11l-70.08.22a.37.37,0,0,1-.39-.37v-4.1a.38.38,0,0,1,.39-.37l70.08-.16a.38.38,0,0,1,.38.37v4A.38.38,0,0,1,620.78,353.11Z"/><path class="cls-27" d="M553.5,400.41a1.53,1.53,0,0,1-1.14-.49,1.46,1.46,0,0,1,.14-2.09c9.56-8.31,20.07-12.83,31.23-13.45,6.7-.36,11.58.72,16.74,1.87,5.44,1.21,11,2.46,19.3,2A41.38,41.38,0,0,0,633,385.49a64.54,64.54,0,0,1,15.33-3.61,80,80,0,0,1,19.38,0,162.82,162.82,0,0,0,17.58.8A122.67,122.67,0,0,0,709.63,380c5.27-1,11.23-2.1,20.07-3a274.06,274.06,0,0,1,48.91-.41,1.41,1.41,0,0,1-.23,2.81,271.32,271.32,0,0,0-48.42.43c-8.72.91-14.62,2-19.83,3a124.39,124.39,0,0,1-24.88,2.68,160.16,160.16,0,0,1-17.87-.8,77.09,77.09,0,0,0-18.76,0,61.8,61.8,0,0,0-14.7,3.48,44.57,44.57,0,0,1-14,2.92c-8.67.5-14.49-.79-20.13-2-4.95-1.1-9.64-2.14-15.91-1.79-10.46.58-20.34,4.85-29.36,12.7A1.56,1.56,0,0,1,553.5,400.41Z"/><polygon class="cls-4" points="779.33 400.82 741.24 401.33 741.24 394.46 779.33 394.01 779.33 400.82"/><path class="cls-4" d="M571.49,377.65l-20.79.17a.38.38,0,0,1-.39-.37v-4.1a.38.38,0,0,1,.39-.38l20.79-.15a.37.37,0,0,1,.38.37v4.08A.39.39,0,0,1,571.49,377.65Z"/><polygon class="cls-4" points="504.16 259.52 393.45 257.77 393.45 221.77 504.16 224.29 504.16 259.52"/><polygon class="cls-4" points="716.62 328 547.6 327.66 547.6 225.29 716.62 229.15 716.62 328"/><polygon class="cls-4" points="504.16 278.76 393.45 277.44 393.45 264.73 504.16 266.32 504.16 278.76"/><polygon class="cls-4" points="790.45 239.85 730.26 238.59 730.26 229.45 790.45 230.82 790.45 239.85"/><polygon class="cls-4" points="790.45 252.38 730.26 251.28 730.26 242.14 790.45 243.35 790.45 252.38"/><polygon class="cls-4" points="790.45 327.85 730.26 327.73 730.26 262 790.45 262.96 790.45 327.85"/><path class="cls-4" d="M392.41,343.37a3.44,3.44,0,0,0-1.8,3.31,3.59,3.59,0,0,0,2.7,2.63c1.54.42,2.05-.51,3.71-.38,2.51.19,4.47,2.56,5.29,4.32s.18,2.15.7,4.14c.91,3.5,3.76,5.64,6.47,7.68,2.27,1.71,5.74,3.78,6.37,3.16.22-.22,0-.73-.1-1-.49-1.21-1.59-1.49-3.08-2.62-1.07-.8-2.41-1.81-2.19-2.62s1.91-1.29,3.18-.95a4.08,4.08,0,0,1,2.28,2.06c.29.47.24,1.09.5,1.12s.38-.23.47-.45c.23-.56-.17-1.09-.32-1.52-.34-1,.47-2.07,1.27-3.14,1.35-1.79,2.14-1.81,4.23-3.89,1.4-1.4,2.1-2.12,2.18-3.13a4.22,4.22,0,0,0-1.72-3.25c-1.27-1-3.44-1.75-4.36-1s.05,2-.92,2.94a3,3,0,0,1-4.9-2A2.32,2.32,0,0,1,413,347c.2-.19.67-.56,2.26-.63,2.23-.09,2.69.59,4,.31,1.12-.24,2.46-1.07,2.44-1.88s-1.88-1.05-4-3.19c-.83-.83-1.5-1.53-1.45-2.44.07-1.28,1.56-2.3,1.85-2.5,1.16-.79,2.18-1.44,2.18-1.44.29-.18.71-.44.66-.69s-.26-.27-.66-.37A5.47,5.47,0,0,0,418,334c-1.51.31-2,1-3.83,1.94a14.81,14.81,0,0,1-3.71,1.38c-1.95.41-2.62.07-3.59.75s-.63,1.19-1.59,2.19-2.23,1.41-4.12,1.95a21.84,21.84,0,0,1-4.2.76C394.1,343.2,393.5,342.75,392.41,343.37Z"/><path class="cls-4" d="M424.14,334.93c-2.07.52-3.86,1-4.23,2.13a1.83,1.83,0,0,0,.53,1.87c1.08.88,2.71-.51,3.89.25.64.41.4.95,1.12,3.94a8.15,8.15,0,0,0,1.65,3.81c.44.48,1,1.17,1.65,1.05.9-.16.56-1.84,2-3.06.5-.42.59-.26,3-1.31,1.39-.62,2.08-.93,2.23-1.19.79-1.32-1.29-2.92-.46-4.49.16-.29.18-.14,1.25-1.37,1.23-1.42,1.22-1.64,1.18-1.75-.13-.46-1.05-.49-3.41-.75-3.91-.42-4.23-.63-5.39-.37-.77.17-1,.33-2.64.74C425.15,334.75,425,334.72,424.14,334.93Z"/><path class="cls-4" d="M418.92,368.21a3.9,3.9,0,0,0-1.45,2.7c-.23,1.36.19,2.25,1,4.5a30.29,30.29,0,0,1,1.52,4.87c.11,1.2-.12,1.41-1.06,6.14-.7,3.51-.77,4.42-.13,5.07a3.21,3.21,0,0,0,3,.59c0-.12-.4-.22-.73-.62-.73-.89-.2-2.36-.07-2.75.55-1.54,1.6-2.19,3.3-3.72a18.59,18.59,0,0,0,4.29-4.72A8.46,8.46,0,0,0,429.8,375a8,8,0,0,0-1.64-3.86,9,9,0,0,0-4.68-3C422.17,367.76,420.31,367.25,418.92,368.21Z"/><path class="cls-4" d="M438.47,359.43a17.93,17.93,0,0,0-1.9,4.19c-.29,1.22-.57,4,.92,5s2.9-.36,4.78.72a4.92,4.92,0,0,1,1.9,2.35c1.1,2.12.58,3.3,1.05,6,.22,1.28.92,5.36,2.68,5.64,1.46.23,3.06-2.28,3.33-2.7a13.89,13.89,0,0,0,1.5-4.55c.7-3.07.44-3.5,1.17-4.36,1-1.11,2.1-1.25,2.35-2.31a2.66,2.66,0,0,0-.52-1.93c-1-1.6-2.34-1.41-3.26-3-.53-.89-.67-1.95-.46-2s.72.55,1,.87c.79,1,.69,1.31,1.17,1.79a3.59,3.59,0,0,0,2.74.79c.75-.09,2.11-.49,2.28-1.31.12-.63-.49-1.3-1.24-2.11-.6-.64-1.05-.92-1-1.05s.61,0,2,.49,2.3.74,2.41.8c.51.27.95.65,2.4,2.9s2,3.43,2.34,3.33c.16-.05.13-.36.26-1.43.18-1.59.28-2.4.71-3a2.4,2.4,0,0,1,1.94-1.07c.49.05,1.07.76,2.21,2.16s1.5,1.85,2.26,2.21a2,2,0,0,0,1.68.24,1.75,1.75,0,0,0,.58-2.05c-.31-.86-1.19-.94-1.16-1.47,0-.76,1.84-1.27,2-1.31,1.17-.32,1.47,0,2.07-.32a2.92,2.92,0,0,0,1-3c-.23-1.1-1-1.5-.77-2s.82-.26,2.06-.56a5.21,5.21,0,0,0,3-1.56,4.33,4.33,0,0,0,.64-2.23,8.84,8.84,0,0,0,0-2c-.15-1.45-.48-1.55-.32-2,.35-.93,2-.67,5.21-1.55,1.83-.5,3.15-1.1,3.28-.87s-2,1.12-2.12,2.66c-.11,1.15,1,2.32,1.41,2.21s.1-1,.77-2.34a3.94,3.94,0,0,1,1.41-1.73c.95-.59,1.52-.19,2.37-.81.69-.5.52-.89,1.09-1.42,1.31-1.19,3.51-.36,3.65-.8s-1.57-1.69-3.78-2c-2-.25-2.26.55-4.48.56-1.27,0-2.79-.46-5.85-1.41a15.34,15.34,0,0,0-4.18-1c-1.09-.06-1.12.09-2.26,0a7.25,7.25,0,0,1-4.13-1.24c-1-.78-.68-1.25-1.48-1.73-1.31-.76-3.09-.13-4.6.44a22.89,22.89,0,0,0-4.66,2.54c-2.24,1.42-3,2.12-4.22,2-.93-.11-1.11-.57-2.15-.56-.83,0-1.1.31-2.8,1s-2.47,1-3.19.87c-1.1-.19-1.15-.92-2.35-1.36s-2.49-.12-4,.31c-1.83.54-3.64,1.07-4.51,2.56s-.07,3-1.12,3.68c-.86.58-1.75-.17-2.55.44-1,.73-.68,2.58-.53,3.55.3,1.92,1,2.39.79,3.74A6,6,0,0,1,438.47,359.43Z"/><path class="cls-4" d="M456.25,375.5c-.46,0-1.23,1.71-1,3.36,0,.1.16,1.38.58,1.42s.81-1,.85-1.12a3.93,3.93,0,0,0,.19-1.74C456.81,377.15,456.68,375.54,456.25,375.5Z"/><path class="cls-4" d="M472.8,371.35c0,.08.1.21.46.48a7.42,7.42,0,0,0,2.25,1.36c.69.22,2.41.63,2.78,0,.24-.38-.1-1.13-.64-1.48s-1,0-2.39-.11S472.88,371.16,472.8,371.35Z"/><path class="cls-4" d="M477.65,368.1c-.29,0-.22.58-.78,1.74-.26.54-.4.68-.32.87a1.37,1.37,0,0,0,1.81.11c.5-.45.27-1.26.19-1.55C478.4,368.73,478,368.05,477.65,368.1Z"/><path class="cls-4" d="M483.45,372.58a3.16,3.16,0,0,0,1.48,1c.31.14,2.63,1.1,3.22.35a1.06,1.06,0,0,0-.07-1.11c-.28-.47-.81-.58-1.67-.79-2.56-.63-3.14-.93-3.35-.66S483.33,372.41,483.45,372.58Z"/><path class="cls-4" d="M479.13,365.93c-.3.09-.29,1.42.26,2.47.28.55.8,1.2,1,1.11s.12-1-.06-1.67C480.07,366.9,479.42,365.84,479.13,365.93Z"/><path class="cls-4" d="M481.58,359.68c0-.31.81-.24,1.87-.88a6.29,6.29,0,0,0,2.38-2.6c.12-.25.24-.57.32-.56s.15.81,0,1.49A4.31,4.31,0,0,1,483.9,360a2.12,2.12,0,0,1-1,.25C482.27,360.27,481.58,360,481.58,359.68Z"/><path class="cls-4" d="M479.39,377.8c-1.41,1.17-2.18,1-2.39,1.62s.73,1.08.9,2.59c.11.94-.19,1.47.07,1.61s1-1,2.51-1.51a4.2,4.2,0,0,1,3,.22c.74.42.65.83,1.87,1.84.78.65,1.18,1,1.67.91.81-.11,1.26-1.2,1.54-1.87a5.16,5.16,0,0,0,.39-3.33c-.17-.65-.29-.5-2.51-3.5-.61-.83-.86-1.18-1.42-1.41a3.45,3.45,0,0,0-2.57.21,6.92,6.92,0,0,0-1.61,1.25C479.89,377.25,479.94,377.33,479.39,377.8Z"/><path class="cls-28" d="M409.46,352.52a11.36,11.36,0,0,1-4.51-5.13c-.47-1.11-1.83-4.37-.11-6.29a5.33,5.33,0,0,1,3.54-1.38c.73-.07,3-.28,4.36,1,2.25,2,.64,6.22.32,7.07A11.28,11.28,0,0,1,409.46,352.52Z"/><path class="cls-25" d="M411.5,344.38a2.65,2.65,0,1,1-2.65-2.5A2.58,2.58,0,0,1,411.5,344.38Z"/><path class="cls-29" d="M481.17,379.28a11.15,11.15,0,0,1-4.38-5c-.45-1.1-1.77-4.3-.1-6.2a5.19,5.19,0,0,1,3.44-1.38c.7-.07,2.87-.29,4.24.95,2.18,2,.62,6.12.3,7A11,11,0,0,1,481.17,379.28Z"/><path class="cls-25" d="M483.16,371.25a2.55,2.55,0,0,1-2.57,2.49,2.5,2.5,0,0,1-2.58-2.45,2.54,2.54,0,0,1,2.58-2.49A2.5,2.5,0,0,1,483.16,371.25Z"/><path class="cls-30" d="M465,362.33a11.21,11.21,0,0,1-4.41-5.07c-.45-1.1-1.79-4.32-.1-6.22a5.17,5.17,0,0,1,3.46-1.37c.71-.07,2.89-.28,4.27,1,2.19,2,.62,6.15.3,7A11.18,11.18,0,0,1,465,362.33Z"/><path class="cls-25" d="M467,354.28a2.6,2.6,0,1,1-2.59-2.47A2.54,2.54,0,0,1,467,354.28Z"/><path class="cls-31" d="M425.75,380.66a11.23,11.23,0,0,1-4.47-5.09c-.47-1.11-1.82-4.35-.11-6.27a5.34,5.34,0,0,1,3.52-1.39c.72-.07,2.94-.3,4.33.95,2.23,2,.63,6.2.31,7A11.23,11.23,0,0,1,425.75,380.66Z"/><path class="cls-25" d="M427.78,372.54a2.58,2.58,0,0,1-2.63,2.51,2.55,2.55,0,0,1-2.63-2.48,2.59,2.59,0,0,1,2.63-2.51A2.54,2.54,0,0,1,427.78,372.54Z"/><polygon class="cls-25" points="646.59 275.95 617.82 259.12 617.82 292.06 646.59 275.95"/><polygon class="cls-25" points="791.46 316.3 729.06 316.01 729.06 313.56 791.46 313.87 791.46 316.3"/><path class="cls-32" d="M738.8,325.17s-4.46-2.86-3.46-5,2.73-1.27,3.64-.63c1.54-.91,2.18-.57,2.9-.2S743.6,322.19,738.8,325.17Z"/><polygon class="cls-25" points="787.07 325.36 746.75 325.25 746.75 319.15 787.07 319.3 787.07 325.36"/><path class="cls-33" d="M431.7,657.16a14.45,14.45,0,0,1,2.43,4.59,14.7,14.7,0,0,1,.54,2.46,13.06,13.06,0,0,1-6,6.2c-2.19,1-6.36-.09-2.76-3.7s4.08-4.39,1.28-10.83c-.72-1.66-.74-2.32-.5-2.51C427.28,652.94,429.71,655.18,431.7,657.16Z"/><path class="cls-34" d="M452.32,657.79a14.33,14.33,0,0,1,2.43,4.59,13.86,13.86,0,0,1,.54,2.45,13,13,0,0,1-6,6.21c-2.19,1-6.36-.09-2.76-3.7s4.09-4.39,1.29-10.83c-.73-1.66-.75-2.32-.5-2.51C447.91,653.57,450.33,655.8,452.32,657.79Z"/><path class="cls-35" d="M449.79,515.15l7,25.54a247.13,247.13,0,0,0-5.7,27.64A255.17,255.17,0,0,0,454.28,659L449,662.4a227.71,227.71,0,0,1-20.26-53.55c-6.56-27.44-6.31-49.44-7.6-49.39s-2.6,20.32-.25,43.06a230.08,230.08,0,0,0,13.26,56.61l-6.78,2a210.57,210.57,0,0,1-28.26-68c-4.36-19.86-9.81-46.28.76-75.22,1.05-2.89,5.1-9.48,5.82-11.08C421.42,508.2,434.09,513.8,449.79,515.15Z"/><path class="cls-36" d="M451.05,568.33a247.13,247.13,0,0,1,5.7-27.64l-7-25.54c-15.7-1.35-28.37-6.95-44.07-8.3-.72,1.6-4.77,8.19-5.82,11.08A100.29,100.29,0,0,0,394,546.18c29.75-3.41,39,1.9,42,7.37,4.72,8.71-5.81,19.13.16,37.13,1.8,5.41,3.91,8,4.84,14.87,1.22,9.08-1.66,10.27-1.16,19.58.54,10.19,4.49,18.31,7.74,25a90.5,90.5,0,0,0,5.49,9.68l1.21-.79A255.17,255.17,0,0,1,451.05,568.33Z"/><path class="cls-37" d="M424.57,396.27c1.09,1.18-.15,3,.21,9.3a43.54,43.54,0,0,0,1,6.92c.22,1.53.45,2.94.7,4.19.18.91.35,1.62.57,2.38a29.33,29.33,0,0,0,1.48,4.09.18.18,0,0,1-.08.23h0a.18.18,0,0,1-.24-.09,31.43,31.43,0,0,1-1.5-4.14c-.21-.77-.38-1.49-.57-2.41-.13-.66-.26-1.36-.38-2.1a19.69,19.69,0,0,0,1.18,7c3,8.58-3.19,15.08-8.55,15.87-6.18.91-10.9-3.57-12.36-5.05a22.09,22.09,0,0,1-3.89-24.65C407.48,397,421.91,393.38,424.57,396.27Z"/><path class="cls-38" d="M409.75,406.36a13.7,13.7,0,0,1,4.36-8c6.47-5.49,18-2.82,25,2.13,7.3,5.18,4.94,9.54,12.2,15.38,7.88,6.34,12.58,2.73,23.22,8.55,4.19,2.28,15.47,8.45,17.35,19.7,1.62,9.72-4.28,20.23-12.35,24.89-13.83,8-33.17-1.71-42.84-11.45-9.26-9.34-4-12.41-17.7-30.88C414,420,408.53,413.92,409.75,406.36Z"/><path class="cls-39" d="M346.18,483.49l-1.77.2a30.47,30.47,0,0,0-5,0c-1.84.27-2.92,1.14-3,3s2.24,2.2,4.23,2.49c1.21.18,2.9-.79,4.2-1.69a12.54,12.54,0,0,1,3.19-1.16Z"/><path class="cls-40" d="M399.21,439.27c-9.32,12.22-5.66,18.75-12,28.84s-10.94-2.42-27.65,4.46a80.38,80.38,0,0,0-14.38,7.73c.08.69.18,1.43.33,2.21.1.53.27,1.3.59,2.45a51.46,51.46,0,0,0,1.66,5c5,2.73,13.78,6.49,23.89,4.45a24.06,24.06,0,0,0,5-1.48c6.37-2.61,16.37-4.15,26.12-17.43,7.36-10,8.46-10.77,9.84-15.55,3.42-11.81-.51-26-5.59-26.82C404.34,432.64,401.79,435.89,399.21,439.27Z"/><path class="cls-41" d="M402.27,436a26.65,26.65,0,0,0-5.62,15.42c-.37,9.09,3.91,16,4.93,17.87,4.85,8.66,5.26,26.68-13.51,67.53,2.35,1.58,11.19,14.15,14.06,7.39,3.9-9.22,19.36-72.88,5.86,2.06-.18,1,1.94.57,2.95.83a68.77,68.77,0,0,0,25.38,1.81A70.54,70.54,0,0,0,467.8,537a137.59,137.59,0,0,1-14.13-37,140.59,140.59,0,0,1,1.9-67.77c-4.94-2.71-20.51-10.43-37.49-5.66C413.85,427.8,407.26,429.76,402.27,436Z"/><path class="cls-42" d="M453.67,500a140.59,140.59,0,0,1,1.9-67.77c-4.94-2.71-20.51-10.43-37.49-5.66-4.23,1.19-10.82,3.15-15.81,9.37a26.06,26.06,0,0,0-5.43,13.21l.51-.14c10.49-2.57,23.67,4.72,28.72,12.39,8.41,12.79-6.58,25.51-3.95,46.9,1.41,11.56,7.87,24.74,24.85,38.44A71.51,71.51,0,0,0,467.8,537,137.59,137.59,0,0,1,453.67,500Z"/><path class="cls-43" d="M421,415.47c-1.2,3.23-2.08,7.22-.14,9.63a10.32,10.32,0,0,0,4.7,2.82c4.13,1.55,5.88.56,6.78,1.67,2,2.43-1.83,12.88-9.63,14.56S407,438,407.78,434.27c.73-3.37,8.56-3.15,9.52-7.41.48-2.14-1-4.31-2.31-5.76l-.92.18Z"/><path class="cls-44" d="M432.35,429.59c-.9-1.11-2.65-.12-6.78-1.67a10.32,10.32,0,0,1-4.7-2.82c-1.94-2.41-1.06-6.4.14-9.63l-6.94,5.81.92-.18a8.79,8.79,0,0,1,2.35,4.44,6.54,6.54,0,0,1,1.45,1,17.35,17.35,0,0,0-1,5.53c0,2,0,3.41,1,4.68a6.44,6.44,0,0,0,4.06,2.06,14,14,0,0,0,7.67-.56C432.74,434.85,433.46,431,432.35,429.59Z"/><path class="cls-45" d="M419,418.78s-.39,4-4.31,4c-4.84,0-5.38-12.73-4.2-13.46,1.36-.85,2.56,1.22,5.73.5,1.34-.3,2.49-2,3.17-.17.77,2.11.12,5.84.12,5.84s1.15-1,1.32.19C421.08,417.15,420,418.08,419,418.78Z"/><path class="cls-46" d="M411.38,404.91c-1.54,1.57-2.39,4.6-1.32,6.13,1.53,2.19,6-.1,7.89,2.58.81,1.18.77,2.81,1.19,2.79s.55-1.16.75-2.09c1.11-5.13,2.38-5.7,2-7.17C421.09,404.16,414.53,401.7,411.38,404.91Z"/><path class="cls-47" d="M396.24,491.44l-1.95-.18a33.42,33.42,0,0,0-5.34-1.07c-2-.12-3.38.59-3.87,2.61s1.92,2.86,4,3.61c1.26.46,3.3-.21,4.89-.89a13.58,13.58,0,0,1,3.69-.54Z"/><path class="cls-48" d="M442.82,430.83c7.94-2,19.47,21.83,21,44.88.49,7.32-9.53,16.25-18.87,21.12-10.9,5.69-21.58,5.37-26.92,5.21a59.81,59.81,0,0,1-20.88-4.37,24.63,24.63,0,0,1-1.54-4.47,25.6,25.6,0,0,1-.65-4.33,55.5,55.5,0,0,1,16.55-11.37c4.91-2.16,7.75-2.54,14.89-4.5,6.5-1.79,10-1.62,12-1.25a5.84,5.84,0,0,0,4.15-.3c2-1.16,2.43-3.85,2.58-4.76,1.48-9.1-10.39-18.26-8.2-28.22C437.63,435.55,439.79,431.59,442.82,430.83Z"/><path class="cls-49" d="M419.41,409.63c-1.07,1.17,1.28,5,6,12.74,2.92,4.73,4.38,7.1,5.31,8.13,5,5.51,13.56,9.76,22.17,9.28,5.91-.33,6.78-2.6,11.62-1.79,7.31,1.22,11.48,7.41,11.81,7.08s-4.35-8.28-13.83-14.89c-7.75-5.41-9.86-3.78-22-11.27-.89-.54-4.63-2.86-9.88-5.46C424.4,410.38,420.47,408.47,419.41,409.63Z"/><path class="cls-19" d="M317.58,646.29a.49.49,0,0,1-.49-.41L294.3,512.44a.51.51,0,0,1,.41-.58.51.51,0,0,1,.58.41l21.8,127.63V504.25a.5.5,0,0,1,.5-.5.51.51,0,0,1,.5.5V645.79a.5.5,0,0,1-.46.5Z"/><path class="cls-19" d="M242.2,681.24h0a.49.49,0,0,1-.46-.5V528.11a.5.5,0,0,1,.5-.5.5.5,0,0,1,.5.5v145l19.94-151.21a.5.5,0,1,1,1,.13L242.69,680.81A.49.49,0,0,1,242.2,681.24Z"/><path class="cls-19" d="M487.77,705.05a.51.51,0,0,1-.5-.43L466,545.85a.5.5,0,0,1,.43-.56.5.5,0,0,1,.56.43l20.28,151.33V541.48a.5.5,0,0,1,1,0V704.55a.51.51,0,0,1-.47.5Z"/><path class="cls-19" d="M396.41,744.05h0a.5.5,0,0,1-.46-.5V578.14a.5.5,0,0,1,1,0V737.52L426.5,560.39a.49.49,0,0,1,.57-.41.5.5,0,0,1,.41.58L396.9,743.63A.5.5,0,0,1,396.41,744.05Z"/><path class="cls-50" d="M313.83,504.84l175.18,35v2.28l-92.92,37L240.93,528.62v-2.28Z"/><polygon class="cls-51" points="313.83 502.56 489.01 539.86 396.09 576.83 240.93 526.34 313.83 502.56"/><polygon class="cls-52" points="387.86 522.76 416.92 527.24 416.92 529.21 404.83 535.04 379.5 528.64 387.86 522.76"/><polygon class="cls-4" points="387.86 520.78 416.92 527.24 404.83 533.06 379.5 526.66 387.86 520.78"/><path class="cls-52" d="M395.19,541.5l-4.64-61.28a2.68,2.68,0,0,0-2-2.19l-79.48-22.34a4.35,4.35,0,0,0-2.62.33c-.54.34-1.15.27-1.13.89l3.32,56.63a2.63,2.63,0,0,0,1.89,2.18l83,26.95Z"/><path class="cls-22" d="M393.48,542.67l-4.81-61.79a2.65,2.65,0,0,0-2-2.18l-79.49-22.35a2.48,2.48,0,0,0-2,.22,1.7,1.7,0,0,0-.82,1.52l2.4,56.07a2.62,2.62,0,0,0,1.93,2.22Z"/><path class="cls-3" d="M393.48,542.67l-84.77-26.29a2.62,2.62,0,0,1-1.93-2.22l-.72-16.91c25.16,16.06,56.85,22.26,86.34,31.53Z"/><path class="cls-22" d="M351.3,544.55l3,1.87,15.13-6.71c.13-.06.72-.79,0-1.09-3.83-1.6-18.43-5.37-18.43-5.37l-7.59,3.61Z"/><path class="cls-4" d="M351.3,543.46l3,1.87,15.13-6.71c.85-.38-18.43-6.46-18.43-6.46l-7.59,3.61Z"/><path class="cls-22" d="M336.45,496.15s-7.22,38.62-8,40.77c-.7,2,19.75,8.44,24.63,9.66a2.4,2.4,0,0,0,1.21-.16c1.39.13-5.1-46.63-5.1-46.63l-.48-.1Z"/><path class="cls-4" d="M336.45,496.15s-8.48,38.75-9.24,40.9,23.68,9.12,25.83,9.5c1.39.12-4.31-46.86-4.31-46.86Z"/><path class="cls-53" d="M703.84,208.14c-.59-1.24-.88-5.87,2.3-5.79s5.16-.49,10.22-2.45,5.2,1.15-2.15,4.59S704.67,209.91,703.84,208.14Z"/><path class="cls-54" d="M701.94,200.91l1.73,2.85a1.58,1.58,0,0,0,1.75.71,1,1,0,0,0,.69-.61,1,1,0,0,0-.09-.92l-2.55-4.11Z"/><path class="cls-55" d="M591.48,129.32c-9,3.93-.7,28.77,24.8,29.65,30.91,1.07,65.9,16.08,84,43.61,1.82-.81,5.94-1.67,4.85-3.79-14.94-29.21-31.27-48.44-47.06-57.21C634.17,128.32,617.05,118.13,591.48,129.32Z"/><g class="cls-56"><path class="cls-57" d="M671.19,163.88c3.36,3.7,5.78-.89,8.92-3.42-7.35-8.49-14.77-14.82-22.08-18.88-23.86-13.26-41-23.45-66.55-12.26-9,3.93-.7,28.77,24.8,29.65a115,115,0,0,1,28.21,4.67C653.49,161.3,663.06,152.41,671.19,163.88Z"/></g><path class="cls-58" d="M676.39,149.11c0-1.62-.38-3.56,3.36-3.68,2.72-.1,7.06,1,11,2,5.5,1.44,5.72,5.07-2.84,4.63C682.29,151.75,676.33,151.41,676.39,149.11Z"/><path class="cls-59" d="M681.32,148.17a1.5,1.5,0,0,1-1.66,1.21c-1.68-.28-1.12-1-.9-1.85s-.26-1.63,1.66-1.21A1.45,1.45,0,0,1,681.32,148.17Z"/><path class="cls-60" d="M661.49,134.89l2.2.33s4,1.68,14.24,8.35c2.28,1.17,3.34,9.24-3.81,7.28s-17.41.58-17.41.58Z"/><path class="cls-61" d="M638.35,134.54c-14.12,1.73-34.2-1-38.3-1.67-5.24-.81-22.08,6.75-22.27,11.51,0,0-1.54,7.34,14.36,13.19l39.09,2.83c13.64-3.25,34.35-10.82,36-16.43C670.66,132.33,655.08,132.48,638.35,134.54Z"/><g class="cls-62"><path class="cls-63" d="M609.18,141.75c10.15,2.11,14.59-4.24,27.46-2.41,8.34,1.19,10.4,4.42,15.3,3,3.86-1.12,6.67-4.33,8.73-8.13-5.56-1.25-13.78-.71-22.32.34-13.71,1.68-33.05-.88-37.9-1.61-.15,0-2.89-2.11-2.89-2.11s-2.73.58-4.71,1.1C598.2,137.41,605.48,141,609.18,141.75Z"/></g><path class="cls-64" d="M580.67,149l-1.62-.14s-5-8-5.92-10.75c-1.16-3.38,22.34-6.68,32.65-13.46,10.84-7.13-2,11.92-2,11.92Z"/><path class="cls-65" d="M609.13,70.84s11,7.8,16.26,26.48c3.93,14.05,18.19,8.7,18.19,8.7l2.17,6.07-12.76,3-27.71,5.75,8.82-34.57Z"/><path class="cls-66" d="M602.42,68.23S573.75,51,564.56,72.92c-8.8,21-7.49,30.29,2.64,56,1,2.59,4,4,4.09,4.34q.84,2.84,1.63,5.88a103,103,0,0,1,44.55-4.6c-8.85-23.06-6.66-36.85-2.72-45.29,2-4.24,1.46-10.66-.89-15.39S608.38,68.46,602.42,68.23Z"/><g class="cls-67"><path class="cls-68" d="M604.75,114.75c-1-1.41-6.08-8.62-14.08-11.89-2.79-1.14-4.84-1.36-8.33-3.51s-4.58-3.89-5-4.73c-1.15-2.17-.33-3.53-1.19-6-.94-2.7-2.15-.3-3.63-5.65a38.39,38.39,0,0,1-1.26-12.44,38.77,38.77,0,0,0-3.36,3.15c-15.62,16.54-10.8,29.53-.67,55.27,1,2.59,4,4,4.09,4.34q.84,2.84,1.63,5.88a103,103,0,0,1,44.55-4.6s-.21-6.86-.28-16.4c-1.73,1.89-4.24,4-6.73,3.59S607.55,118.72,604.75,114.75Z"/></g><path class="cls-69" d="M589.86,117.62a10.9,10.9,0,0,0,3.71,1.16,8.8,8.8,0,0,1,3.43.48c1.71.56,5.35,1.1,4.32-1.39-1.15-2.78-4.83-3.89-6.39-3.14a9.05,9.05,0,0,1-3.51.68Z"/><path class="cls-70" d="M586.44,69.06s-5.62-22.88-33.79,14.66c-23,30.69,29.76,47.28,36.7,36.91a7.74,7.74,0,0,0,2.53-5.67s-1.29-4.43-3.7-5.72c-9.33-5-23.34-3.08-17.79-13.63C576.69,83.66,592.86,72.33,586.44,69.06Z"/><path class="cls-71" d="M572.58,133a.24.24,0,0,1-.21-.16.23.23,0,0,1,.15-.28c.25-.07,24.92-7.43,42.39-3.87a.22.22,0,0,1,.17.26.22.22,0,0,1-.26.17c-17.36-3.53-41.93,3.79-42.17,3.87Z"/><path class="cls-72" d="M593.86,129a.48.48,0,0,0-.41.27s0,.88,0,.9a.42.42,0,0,0,.24.47l15.25,7,31-8.16-14.2-.56Z"/><path class="cls-73" d="M593.86,128.84a.42.42,0,0,0-.16.81l15.26,7,31-8.17-14.2-.55Z"/><path class="cls-74" d="M608.28,136.33l6-30.63a1.09,1.09,0,0,1,1-.87l36.13-1.43a1.07,1.07,0,0,1,1.1,1.25l-4.67,28.65a1.08,1.08,0,0,1-1,.9l-37.65,2.54Z"/><path class="cls-72" d="M608.9,137.59,615,106.28a1.09,1.09,0,0,1,1-.87L652.15,104a1,1,0,0,1,.85.36,1.07,1.07,0,0,1,.26.89l-4.68,28.66a1.08,1.08,0,0,1-1,.9Z"/><path class="cls-75" d="M608.9,137.59l38.7-2.8a1.08,1.08,0,0,0,1-.9l1.41-8.65c-12,5.1-26.24,4.27-39.71,5.31Z"/><path class="cls-76" d="M599.25,52.84c-.06,1.41-.48,8.92-3.88,10-.74.23-2,.14-4.56,0-1.67-.12-3.06-.28-4-.42a10.13,10.13,0,0,0,.63,5.42c2.57,6,10.66,6.73,11.82,6.82A17.7,17.7,0,0,0,607.67,73a19,19,0,0,0,3.89-2.32,38.24,38.24,0,0,0-4.79-3.5,39.57,39.57,0,0,0-4-2.17c.14-1.43.29-2.87.44-4.3Z"/><path class="cls-77" d="M602,69.59a5.84,5.84,0,0,0,4.35,1.48,5.73,5.73,0,0,0,3.51-1.71,36.37,36.37,0,0,0-3.07-2.14,39.57,39.57,0,0,0-4-2.17c.14-1.43.29-2.87.44-4.3L602,58.31a6.61,6.61,0,0,0,0,11.28Z"/><path class="cls-78" d="M611.43,54.47c2.57-1.21,4.3-5.4,3-8.57-.94-2.35-3.21-3.31-4.85-4-.77-.33-6.17-2.54-9.63.23a6.87,6.87,0,0,0-2.23,3.93,17.18,17.18,0,0,0,0,3.9c.12,1.86.08,1.78.13,2.33a24.41,24.41,0,0,0,1.76,6.84,18.82,18.82,0,0,1,2.14-2A14.78,14.78,0,0,1,605,55.23C608.15,54,609.42,55.42,611.43,54.47Z"/><path class="cls-79" d="M597.66,55.54a9.09,9.09,0,0,0,5.08,7.39c4.33,2,10.08-7,8.5-10.48a6,6,0,0,0-3.84-2.79c-1-.23-1.47,0-3.08-.44s-1.77-.72-2.35-.6-1.63,1-2.31,4.15c-.35-1.25-1.14-2.08-2-2.14a1.69,1.69,0,0,0-.85.24C595.64,51.62,595.87,53.53,597.66,55.54Z"/><path class="cls-73" d="M599.75,611.85a1,1,0,0,1-.91-.6l-140.07-315a1,1,0,1,1,1.83-.81l140.06,315a1,1,0,0,1-.5,1.32A1,1,0,0,1,599.75,611.85Z"/><path class="cls-73" d="M669.9,599.23a1,1,0,0,1-.91-.58L526.66,297.32a1,1,0,1,1,1.8-.85L670.8,597.8a1,1,0,0,1-.48,1.33A.9.9,0,0,1,669.9,599.23Z"/><path class="cls-73" d="M545.73,337.65h0l-67.88-1a1,1,0,0,1-1-1,1,1,0,0,1,1-1h0l67.88,1a1,1,0,0,1,1,1A1,1,0,0,1,545.73,337.65Z"/><path class="cls-73" d="M502.27,391.53a1,1,0,0,1-1-1,1,1,0,0,1,1-1l67.5-2.59a1,1,0,0,1,1,1,1,1,0,0,1-1,1l-67.5,2.59Z"/><path class="cls-73" d="M527.82,448.69a1,1,0,0,1-1-.91,1,1,0,0,1,.91-1.09l66.36-5.8a1,1,0,1,1,.17,2l-66.36,5.8Z"/><path class="cls-73" d="M552.81,502.82a1,1,0,0,1-1-.84,1,1,0,0,1,.83-1.15L619,490.49a1,1,0,1,1,.3,2L553,502.81Z"/><path class="cls-73" d="M577.41,559.61a1,1,0,0,1-.16-2l68.25-11.48a1,1,0,1,1,.33,2l-68.25,11.48Z"/><path class="cls-80" d="M504.63,253s-3.27-2.73-5.84-2.93-3.68.94-4.69,2.5,6.95,1.79,9.36,2.62S504.63,253,504.63,253Z"/><path class="cls-81" d="M500.84,254.88c-1.3,6.82.16,10.33,1.78,12.29,3,3.61,6.69,2.06,14.23,6.91,4.1,2.64,5.37,4.63,7.22,4,2.37-.75,3.17-4.91,4-9.37a42.83,42.83,0,0,0,.79-8.11,28.13,28.13,0,0,0-13.63-8.89,27.58,27.58,0,0,0-10.93-.81Z"/><path class="cls-82" d="M603.77,483.28s2.88,3.15,3.11,4.94A17.79,17.79,0,0,0,609.4,487a19,19,0,0,1-1.72-2.24,26.3,26.3,0,0,1-1.28-2.9Z"/><path class="cls-72" d="M610.25,487.38a1.18,1.18,0,0,1,.53.57,1.14,1.14,0,0,1,.09.49c0,.76-.36,1-.52,1.86-.1.52,0,.63-.16.92a1.7,1.7,0,0,1-.92.66,18.83,18.83,0,0,1-2.42.76c.27-.88.57-1.78.9-2.71l.45-1.19,1.35-1.12Z"/><path class="cls-73" d="M607.86,485.7c.42-.15.86.06,1.39.78s1.93,1,.56,1.33-1.61,2.53-1.82,3.38-1.22,1.94-1.44,1.26.21-1.19.1-1.94S606.9,486.05,607.86,485.7Z"/><path class="cls-72" d="M562.58,495.44a1.16,1.16,0,0,1,.27.65,1.43,1.43,0,0,1-.08.43c-.24.63-.62.71-1,1.38-.25.41-.2.53-.43.71a1.48,1.48,0,0,1-1,.26,17,17,0,0,1-2.25-.12c.5-.65,1-1.31,1.6-2l.75-.85,1.48-.5Z"/><path class="cls-83" d="M561.35,488.26s-.84,4.41.23,5.64c.92,1.24-.44.36-.44.36l-1.62,1.41-1,1.69s.9-4.32.66-6-.36-2.87-.36-2.87Z"/><path class="cls-73" d="M561.12,493.28c.4,0,.7.33.92,1.1s1.28,1.44,0,1.28-2.14,1.59-2.58,2.24-1.63,1.23-1.6.59.55-.93.7-1.58S560.21,493.27,561.12,493.28Z"/><path class="cls-72" d="M534.7,354.62c-.47,6.09-.9,14.22-.86,23.81A239,239,0,0,0,537,419.94c2.18,12.72,4.92,21.61,9.28,35.77S555,481.47,558.35,490a2.28,2.28,0,0,0,1.58.49,2.37,2.37,0,0,0,1.78-1.29c.32-7.72.67-17.76,1-30.09,0,0,0-.92,0-1.23.31-13.57.64-27.79.79-33.2.2-7.52.63-18.4,1.58-32.41,2.21,4.87,5.43,12.36,8.69,21.74,3.88,11.14,5.88,19.34,6.72,22.53,2.84,10.71,9,26.5,23.8,47.79a2.26,2.26,0,0,0,1.38-.12,2.47,2.47,0,0,0,1.36-1.58,346.65,346.65,0,0,0-2.82-40.16,327.86,327.86,0,0,0-8.3-42.3c-1.33-5.18-7.63-29.35-16.21-39.52A63.36,63.36,0,0,0,564.78,348C563.88,347.42,560.83,345.55,534.7,354.62Z"/><path class="cls-84" d="M463.91,303.56a15.64,15.64,0,0,1-3.43-1.79c-1.59-1.1-4.64-3.71-4.05-5,.39-.87,2.3-.85,6.14-.81a2.53,2.53,0,0,1,1,.14c2.05.81,2.15,4.82,2.15,6C465.13,302.58,464.48,303,463.91,303.56Z"/><path class="cls-85" d="M517,288.79c-6.54-2.32-17.5,19.34-28.06,16.52-4.34-1.16-5.58-5.65-12.25-6.92a19,19,0,0,0-9.6.82c-1.57,1.57-3.24,3.09-4.81,4.84a33.24,33.24,0,0,0,8.87,16.48c2.84,2.83,9.17,9.14,17,8.69,6.65-.38,8.55-5.29,21.94-13.24a113.21,113.21,0,0,1,10.59-5.55C521.82,294,519.46,289.65,517,288.79Z"/><path class="cls-86" d="M524.78,284.27c-3.36,1.18-12.56,4.52-15.71,13-1.63,4.38,1.08,4.83.66,16.77-.12,3.45-.39,5.17.79,7.11,2.16,3.55,6.16,2.85,9.49,5.53,4.29,3.46,4,9.75,4.35,14.63.48,6.68,2.56,16.22,9.88,28.06,2,1.48,5.08,3.77,8.69,6.72,9.52,7.76,13.48,12.87,16.21,14.63,20.23,13,60-7.28,58.89-13.05-.6-3.17-13,1.12-22-7.67-4.17-4.07-7-9.42-12.14-20.69-3.89-8.54-4.14-11.09-7.73-17.49A79.24,79.24,0,0,0,566.25,318a17.9,17.9,0,0,0-.39-9.88c-2.65-7.55-9.3-7.74-19.17-19-2.44-2.79-3.06-3.85-5.12-5.08S534.85,280.73,524.78,284.27Z"/><path class="cls-87" d="M516.72,279.74a8.14,8.14,0,0,1-2.66-4.43c-.55-2.62.22-5.92,1.6-6.23a1.58,1.58,0,0,1,1.13.3c3,1.88,5.7,5.52,7.28,8.74a7.54,7.54,0,0,0,2.71,3.22c1.34.86,2,.83,2.92,1.36,2.69,1.61,4,7.34,1.71,9.76s-6.79.46-9.82-.79c-.89-.36-4.54-1.86-4.41-3.49,0-.58.54-.85,2.37-2.5,1.05-.95,1.87-1.75,2.4-2.28a2.24,2.24,0,0,0-.53-.9,2.72,2.72,0,0,1-.84-.91A8.22,8.22,0,0,1,516.72,279.74Z"/><path class="cls-88" d="M539,341.55c9.13,9.82,15,3.44,28,15,10.33,9.15,9.81,15.92,19,21.87s20,5.75,27.34,4.74c3.17-2.21,5-4.23,4.72-5.52-.6-3.17-13,1.12-22-7.67-4.17-4.07-7-9.42-12.14-20.69-3.89-8.53-4.14-11.09-7.73-17.49A79.24,79.24,0,0,0,566.25,318a17.9,17.9,0,0,0-.39-9.88c-2.65-7.55-9.3-7.74-19.17-19-2.44-2.79-3.06-3.85-5.12-5.08-2.58-1.55-9.14-2.68-16.79.31-4.4,1.71-8.52,3.32-9.39,6.67-1.08,4.14,3.51,8.19,6.84,12C535.74,318.42,527.64,329.32,539,341.55Z"/><path class="cls-89" d="M521.68,277a15.38,15.38,0,0,0-1.72-2.48,8.81,8.81,0,0,0-.84-.87c-1.88-1.84-2.84-1.74-3.94-3.14a8,8,0,0,1-1.31-5.83c.5-3.38,3-5.33,4.38-6.42a12.44,12.44,0,0,1,4.52-2.33c2.05-.55,4.77-.78,10.21,1a47.11,47.11,0,0,1,11.67,5.69c13.78,9.51,14.33,11.3,18.84,13.83,14,7.85,22.88-1.62,31.62,5.53,8.55,7,7.8,22.37,5.14,31.22-1,3.35-5.93,18-19.37,22.93-18.21,6.64-37.41-10-45.66-21.13a55.1,55.1,0,0,1-9.31-20.29S524.91,283,521.68,277Z"/><path class="cls-90" d="M519.52,273.39c.24-1.06,2-1,2.58.2s.47,3.23-1.09,3.56S519.19,274.83,519.52,273.39Z"/><path class="cls-19" d="M503,722.71,464.09,603.57c-1-3.1-.4-6.35,1.37-7.25l48.69-24.81c1.76-.9,5.71-.77,6.72,2.33l37.19,120.8c1,3.1.39,6.34-1.37,7.24l-46.34,25.06C508.59,727.84,504,725.81,503,722.71Z"/><path class="cls-25" d="M506,722.71,467.09,603.57c-1-3.1-.4-6.35,1.37-7.25l48.69-24.81c1.76-.9,4,.89,5,4l38.88,119.15c1,3.1.39,6.34-1.37,7.24L511,726.69C509.23,727.6,507,725.81,506,722.71Z"/><polygon class="cls-22" points="526.21 718.93 483.67 588.56 482.26 589.28 524.8 719.65 526.21 718.93"/><polygon class="cls-22" points="545.7 647.54 508.01 666.75 508.81 669.22 546.51 650.01 545.7 647.54"/><path class="cls-26" d="M495.13,654.09l-14.91-45.71c-.07-.21,0-.43.09-.49l2.39-1.22c.12-.06.27.06.34.27L498,652.65c.07.21,0,.43-.09.49l-2.39,1.22C495.35,654.42,495.2,654.3,495.13,654.09Z"/><path class="cls-4" d="M493.81,669.23l-19-58.11c-.07-.21,0-.43.09-.49l2.39-1.22c.12-.06.27.06.34.27l19,58.11c.07.21,0,.43-.09.49l-2.39,1.22C494,669.56,493.88,669.44,493.81,669.23Z"/><polygon class="cls-4" points="547.74 699.76 535.86 663.33 543.98 659.19 555.87 695.62 547.74 699.76"/><polygon class="cls-4" points="528.18 709.73 516.29 673.3 532.39 665.1 544.28 701.52 528.18 709.73"/><path class="cls-22" d="M519.46,614.58c1.79,5.49.7,11.25-2.43,12.85a3.83,3.83,0,0,1-2.78.26l.7,13.25a8.71,8.71,0,0,0,6.28-.64c7.18-3.65,9.67-16.87,5.57-29.46l0-.09-7.34,3.74Z"/><path class="cls-91" d="M514.25,627.69c-2.42-.64-4.86-3.37-6.15-7.32-1.79-5.49-.7-11.25,2.43-12.85s7.09,1.54,8.89,7l7.34-3.74c-4.12-12.53-13.27-19.75-20.43-16.1s-9.67,16.87-5.57,29.46c3,9.1,8.59,15.41,14.19,16.83Z"/><polygon class="cls-92" points="695.13 294.03 695.13 438.29 714.74 438.03 695.13 294.03"/><path class="cls-72" d="M834.29,298.28l30.17,258.21c.45,3.86-2.12,7.14-5.73,7.28l-121.25,6.09c-7.21,0-11.17-4.14-11.64-8.12L694.79,296c-.47-4,3-7.57,10.23-7.57l121.85,2.75C830.51,291.21,833.84,294.42,834.29,298.28Z"/><path class="cls-93" d="M839.91,297.85l30.36,259.84c.45,3.88-2.14,7.18-5.77,7.32l-125.91,5a7.87,7.87,0,0,1-7.82-7L699.52,295.52a6.12,6.12,0,0,1,6.17-7.15l126.75,2.29C836.09,290.73,839.45,294,839.91,297.85Z"/><path class="cls-94" d="M837.47,312.19l28.12,240.68c.42,3.62-2,6.7-5.39,6.83l-118.41,4.52a7.34,7.34,0,0,1-7.28-6.53L705.61,310.4a5.72,5.72,0,0,1,5.74-6.68l119.15,1.79A7.56,7.56,0,0,1,837.47,312.19Z"/><path class="cls-95" d="M773.17,297.53a2.06,2.06,0,0,1-2.06,2.43,2.85,2.85,0,0,1-2.65-2.51,2.06,2.06,0,0,1,2.07-2.43A2.84,2.84,0,0,1,773.17,297.53Z"/><path class="cls-25" d="M842.12,399.15a4.59,4.59,0,0,1-4.42,5.42l-109.91.62a6.21,6.21,0,0,1-5.94-5.49l-9.82-84a4.66,4.66,0,0,1,4.67-5.45l110.15,1.51a6.15,6.15,0,0,1,5.7,5.46Z"/><path class="cls-26" d="M750.62,388.06l-16.73,0a.4.4,0,0,1-.4-.37l-.48-4.11a.31.31,0,0,1,.31-.37l16.73,0a.41.41,0,0,1,.4.37l.48,4.09A.32.32,0,0,1,750.62,388.06Z"/><path class="cls-4" d="M801.73,397.06l-66.76.27a.41.41,0,0,1-.4-.37l-.48-4.11a.32.32,0,0,1,.31-.38l66.77-.2a.41.41,0,0,1,.39.37l.48,4.05A.32.32,0,0,1,801.73,397.06Z"/><polygon class="cls-4" points="827.53 357 730.11 356.59 726.02 321.61 823.52 322.72 827.53 357"/><polygon class="cls-4" points="829.71 375.73 732.34 375.7 730.9 363.35 828.3 363.63 829.71 375.73"/><path class="cls-25" d="M850.06,510.36l-109.62,3a6,6,0,0,1-5.93-5.37l-9.82-84a4.77,4.77,0,0,1,4.66-5.56l109.86-.92a6,6,0,0,1,5.69,5.34l9.57,81.94A4.71,4.71,0,0,1,850.06,510.36Z"/><path class="cls-26" d="M763.89,494.34l-16.68.4a.39.39,0,0,1-.4-.36l-.48-4.11a.32.32,0,0,1,.31-.38l16.68-.39a.41.41,0,0,1,.4.37l.48,4.09A.32.32,0,0,1,763.89,494.34Z"/><path class="cls-4" d="M814.85,502.26,748.29,504a.4.4,0,0,1-.4-.36l-.48-4.11a.33.33,0,0,1,.31-.39l66.57-1.66a.42.42,0,0,1,.4.37l.47,4.05A.33.33,0,0,1,814.85,502.26Z"/><path class="cls-4" d="M739.77,439.75a3.09,3.09,0,0,0-1.21,3.23,3.86,3.86,0,0,0,2.67,2.53c1.4.39,1.73-.51,3.2-.41,2.23.17,4.22,2.45,5.13,4.15s.4,2.08,1.09,4c1.19,3.39,3.93,5.44,6.55,7.4,2.18,1.64,5.45,3.62,5.93,3,.17-.22-.06-.71-.2-1-.56-1.17-1.56-1.43-3-2.51-1-.77-2.31-1.74-2.21-2.53s1.53-1.28,2.68-.95a4.33,4.33,0,0,1,2.23,2c.3.46.33,1.06.57,1.09s.3-.23.36-.44c.14-.55-.28-1.06-.46-1.48-.41-1,.18-2,.76-3.06,1-1.75,1.67-1.78,3.27-3.82,1.07-1.38,1.6-2.08,1.55-3.07a4.79,4.79,0,0,0-1.87-3.14c-1.24-1-3.22-1.66-3.94-.92s.26,1.91-.47,2.87a2.22,2.22,0,0,1-2.38.58,3.22,3.22,0,0,1-2.15-2.47,2.31,2.31,0,0,1,.32-1.77c.15-.18.52-.55,1.9-.63,1.95-.12,2.44.54,3.58.25,1-.24,2-1.06,1.93-1.85s-1.78-1-3.9-3.05c-.83-.8-1.5-1.47-1.55-2.36a3.33,3.33,0,0,1,1.34-2.45c.92-.78,1.75-1.42,1.75-1.42.23-.18.57-.44.5-.68s-.26-.26-.63-.35a4.27,4.27,0,0,0-2-.1c-1.29.32-1.63,1-3.15,1.92a11.18,11.18,0,0,1-3.09,1.38c-1.67.42-2.29.1-3.06.76s-.42,1.17-1.15,2.15-1.79,1.39-3.39,1.94a16.82,16.82,0,0,1-3.59.78C741.23,439.57,740.65,439.14,739.77,439.75Z"/><path class="cls-4" d="M766.62,431.23c-1.75.52-3.27,1-3.46,2.11a2,2,0,0,0,.68,1.81c1,.84,2.31-.52,3.44.21.6.39.45.92,1.43,3.81a9.28,9.28,0,0,0,1.88,3.69c.43.46,1,1.12,1.56,1,.77-.17.28-1.8,1.39-3,.39-.42.48-.26,2.44-1.31,1.15-.61,1.72-.92,1.83-1.17.53-1.29-1.47-2.83-.91-4.36.1-.29.14-.14.93-1.35.92-1.39.88-1.6.84-1.71-.17-.44-1-.47-3.08-.69-3.48-.37-3.78-.57-4.77-.31-.66.17-.82.34-2.23.75C767.49,431,767.36,431,766.62,431.23Z"/><path class="cls-4" d="M765.83,463.62a3.58,3.58,0,0,0-1,2.64c-.05,1.33.43,2.19,1.38,4.36a34.35,34.35,0,0,1,1.88,4.72c.24,1.16.06,1.37-.23,6-.21,3.42-.17,4.3.46,4.92.93.91,2.69.79,2.74.55s-.38-.21-.71-.59a3.33,3.33,0,0,1-.37-2.68c.31-1.49,1.15-2.14,2.47-3.64a14.87,14.87,0,0,0,3.22-4.63,8.59,8.59,0,0,0,.45-5.12,9.3,9.3,0,0,0-1.89-3.74,9,9,0,0,0-4.45-2.9C768.63,463.15,766.94,462.67,765.83,463.62Z"/><path class="cls-4" d="M782,454.9a16.42,16.42,0,0,0-1.2,4.09c-.11,1.18,0,3.87,1.38,4.89s2.51-.38,4.28.65a5.61,5.61,0,0,1,1.94,2.27c1.2,2.05.88,3.2,1.6,5.85.34,1.25,1.42,5.21,3,5.46,1.32.21,2.43-2.25,2.62-2.66a13.11,13.11,0,0,0,.8-4.44c.27-3,0-3.4.54-4.24.7-1.1,1.69-1.24,1.79-2.28a2.94,2.94,0,0,0-.67-1.86c-1-1.55-2.22-1.36-3.2-2.85-.56-.86-.81-1.89-.63-2s.69.53.95.83c.81.93.76,1.27,1.24,1.74a3.14,3.14,0,0,0,2.49.74c.65-.09,1.8-.5,1.85-1.3,0-.61-.58-1.26-1.32-2-.6-.62-1-.89-1-1s.54,0,1.83.46,2.1.69,2.2.75c.49.26.91.62,2.44,2.8s2.15,3.31,2.43,3.21.08-.35.07-1.39c0-1.55,0-2.33.29-2.9a1.81,1.81,0,0,1,1.58-1.05c.43,0,1,.72,2.18,2.07s1.54,1.79,2.25,2.14c.37.18,1,.5,1.5.21a1.71,1.71,0,0,0,.28-2c-.38-.85-1.15-.91-1.19-1.43-.06-.74,1.48-1.25,1.61-1.3,1-.32,1.29,0,1.78-.33a2.79,2.79,0,0,0,.57-2.9c-.33-1.06-1.06-1.45-.91-1.91s.7-.27,1.76-.57a3.85,3.85,0,0,0,2.48-1.54,4.27,4.27,0,0,0,.31-2.18,10,10,0,0,0-.22-1.92c-.3-1.41-.6-1.5-.51-1.92.2-.9,1.7-.68,4.41-1.56,1.54-.51,2.64-1.1,2.78-.88s-1.61,1.11-1.56,2.6c0,1.13,1.11,2.26,1.49,2.15s0-1,.41-2.29a3.24,3.24,0,0,1,1-1.7c.77-.58,1.31-.19,2-.81s.35-.87.8-1.39c1-1.17,3-.39,3.11-.82s-1.57-1.62-3.54-1.87c-1.76-.23-1.93.55-3.88.59-1.11,0-2.51-.43-5.31-1.32a13.16,13.16,0,0,0-3.79-.91c-1-.05-1,.1-2,0a6.45,6.45,0,0,1-3.77-1.16c-.95-.75-.74-1.22-1.5-1.67-1.23-.73-2.72-.09-4,.47A17.65,17.65,0,0,0,804.1,437c-1.8,1.41-2.38,2.1-3.48,2-.82-.09-1-.54-2-.52-.73,0-.93.31-2.34,1s-2.06,1-2.71.88c-1-.17-1.11-.88-2.21-1.31a4.75,4.75,0,0,0-3.46.35c-1.55.54-3.08,1.07-3.68,2.53s.28,2.89-.56,3.59-1.56-.15-2.19.45-.3,2.52-.06,3.46c.48,1.87,1.19,2.32,1.12,3.63A5.57,5.57,0,0,1,782,454.9Z"/><path class="cls-4" d="M799.42,470.35c-.41,0-.88,1.67-.53,3.28,0,.1.3,1.34.67,1.38s.59-1,.62-1.1a4.18,4.18,0,0,0,0-1.7C800.1,472,799.8,470.38,799.42,470.35Z"/><path class="cls-4" d="M813.49,466.16c0,.07.11.2.46.46a7.49,7.49,0,0,0,2.13,1.3c.64.21,2.19.59,2.45,0,.16-.37-.22-1.1-.74-1.43s-.89,0-2.11-.08S813.54,466,813.49,466.16Z"/><path class="cls-4" d="M817.38,463c-.25.05-.12.57-.48,1.7-.17.53-.28.67-.19.85a1.14,1.14,0,0,0,1.6.09c.39-.45.1-1.23,0-1.51C818.11,463.56,817.67,462.9,817.38,463Z"/><path class="cls-4" d="M823,467.25a3.3,3.3,0,0,0,1.42,1c.29.13,2.44,1,2.87.31a1.19,1.19,0,0,0-.18-1.08c-.31-.45-.78-.55-1.56-.75-2.33-.59-2.87-.88-3-.61S822.87,467.09,823,467.25Z"/><path class="cls-4" d="M818.44,460.82c-.26.1-.09,1.39.51,2.4.31.53.83,1.16,1,1.07s0-1-.25-1.62C819.38,461.76,818.69,460.73,818.44,460.82Z"/><path class="cls-4" d="M819.88,454.72c0-.31.69-.25,1.54-.87a5.11,5.11,0,0,0,1.8-2.56c.08-.25.14-.56.22-.54s.22.78.17,1.44A3.62,3.62,0,0,1,822,455a1.68,1.68,0,0,1-.88.26C820.55,455.29,819.91,455,819.88,454.72Z"/><path class="cls-4" d="M820,472.37c-1.1,1.15-1.8,1-1.91,1.6s.76,1,1.09,2.51c.2.91,0,1.43.24,1.56s.78-1,2-1.49a3.38,3.38,0,0,1,2.63.19c.7.4.67.8,1.85,1.77.76.62,1.15.94,1.57.87.7-.11,1-1.18,1.15-1.83a5.47,5.47,0,0,0,0-3.25c-.22-.63-.31-.48-2.6-3.38-.64-.8-.89-1.14-1.41-1.36a2.71,2.71,0,0,0-2.24.23A5.39,5.39,0,0,0,821.1,471C820.39,471.83,820.45,471.91,820,472.37Z"/><path class="cls-96" d="M755.75,448.47a12.57,12.57,0,0,1-4.54-4.94c-.53-1.08-2.1-4.23-.8-6.11a3.94,3.94,0,0,1,2.94-1.38,5.09,5.09,0,0,1,3.94.91c2.19,1.94,1.26,6,1.07,6.86A9.46,9.46,0,0,1,755.75,448.47Z"/><path class="cls-25" d="M756.61,440.54a2.1,2.1,0,0,1-2,2.46,2.69,2.69,0,0,1-2.6-2.4,2.1,2.1,0,0,1,2-2.46A2.69,2.69,0,0,1,756.61,440.54Z"/><path class="cls-97" d="M773.24,475.66a12.41,12.41,0,0,1-4.51-4.91c-.53-1.07-2.09-4.21-.8-6.09a4,4,0,0,1,2.92-1.39,5,5,0,0,1,3.91.89c2.19,1.92,1.26,6,1.07,6.84A9.39,9.39,0,0,1,773.24,475.66Z"/><path class="cls-25" d="M774.09,467.74a2.11,2.11,0,0,1-2,2.47,2.66,2.66,0,0,1-2.59-2.38,2.11,2.11,0,0,1,2-2.47A2.67,2.67,0,0,1,774.09,467.74Z"/><path class="cls-98" d="M807.75,456.67a12.41,12.41,0,0,1-4.44-4.89c-.53-1.06-2.06-4.18-.8-6a3.86,3.86,0,0,1,2.88-1.37,5,5,0,0,1,3.86.89c2.15,1.91,1.24,6,1.06,6.79A9.4,9.4,0,0,1,807.75,456.67Z"/><path class="cls-25" d="M808.59,448.82a2.07,2.07,0,0,1-2,2.44,2.66,2.66,0,0,1-2.56-2.37,2.1,2.1,0,0,1,2-2.45A2.67,2.67,0,0,1,808.59,448.82Z"/><path class="cls-99" d="M824,473.9a12.22,12.22,0,0,1-4.42-4.85c-.53-1.06-2-4.17-.8-6a3.84,3.84,0,0,1,2.87-1.37,4.82,4.82,0,0,1,3.83.87c2.14,1.9,1.24,6,1.05,6.77A9.36,9.36,0,0,1,824,473.9Z"/><path class="cls-25" d="M824.78,466.07a2.08,2.08,0,0,1-2,2.44,2.62,2.62,0,0,1-2.54-2.36,2.08,2.08,0,0,1,2-2.44A2.65,2.65,0,0,1,824.78,466.07Z"/><path class="cls-100" d="M853.6,552l-106.82,3.9a6,6,0,0,1-5.93-5.34l-2.57-19.76a4.89,4.89,0,0,1,4.64-5.69L849.83,522a5.82,5.82,0,0,1,5.69,5.24l2.5,19.2A4.77,4.77,0,0,1,853.6,552Z"/><polygon class="cls-101" points="792.29 531.26 794.61 546.16 808.93 537.32 792.29 531.26"/><path class="cls-102" d="M902.48,483.69c-10.24,3.09-11.85,22.95-12.84,35.17-1.11,13.76-2.35,29.09,6.45,42.82,11.07,17.27,34,25.72,58.35,23.3-.25-1.57-.51-3.14-.76-4.72-25-9.54-31.82-20.26-33.54-28.14-3.66-16.77,14.27-27.54,9.64-45.73C926.29,492.69,911.55,481,902.48,483.69Z"/><path class="cls-103" d="M938.12,496.89c-5.56-8.19-11-16.49-16.41-24.77a13.58,13.58,0,0,1-2-5.49,38,38,0,0,0-6.12,6.16,306.67,306.67,0,0,0-10.55,74.75c-.33,18.9,3.94,76.05,6,90.41.75.15,1-1.81,1.8-1.67.94.18,1.18,1.9,2.1,2.05,2.74-29,5.89-55.18,7.48-68.63.54-4.57,2.13-18.26,9.46-29.29.12-.18,11-15,14.71-20.94,1.25-2,2.8-4.53,4.58-8C945,507.1,941.61,502.05,938.12,496.89Z"/><path class="cls-104" d="M913.16,622.61c-.42-1-2.77,1.49-4.95,4.09q.42,5.63.85,11.25a9.41,9.41,0,0,0-2.86-1.29c-1.32-.3-3.61.17-3.79.81-1.08,3.9,8.66,4.76,9.73,3.53a3.47,3.47,0,0,0,.82-2.67,34.68,34.68,0,0,1-.39-12.07C912.9,624.41,913.4,623.15,913.16,622.61Z"/><path class="cls-105" d="M909.06,638c.75.15,1-1.81,1.8-1.67.94.18,1.18,1.9,2.1,2.05,1-10.6,2.06-20.82,3.08-30.18a94,94,0,0,0-9.91-.52C907.18,620.94,908.27,632.51,909.06,638Z"/><path class="cls-106" d="M938.12,496.89c-5.56-8.19-11-16.49-16.41-24.77a13.58,13.58,0,0,1-2-5.49,38,38,0,0,0-6.12,6.16,306,306,0,0,0-9.29,51.76c5.68-.33,11.09,3,12.69,7,3.3,8.25-7.11,14.7-7,32,.06,9.47,3.45,11.85,1.9,20.55a50.7,50.7,0,0,0-1,13.95c.21,3,.45,2.33.64,5,.52,7.66-1.31,14.71-.52,19.49a10.88,10.88,0,0,0,2.92,5.88c2.49-25,5.11-46.83,6.52-58.73.54-4.57,2.13-18.26,9.46-29.29.12-.18,11-15,14.71-20.94,1.25-2,2.8-4.53,4.58-8C945,507.1,941.61,502.05,938.12,496.89Z"/><path class="cls-107" d="M848.74,499l-1.23,1.19a29.16,29.16,0,0,0-3.77,3c-1.24,1.29-1.54,2.59-.47,4.07s3,.36,4.69-.59c1-.58,1.75-2.32,2.2-3.78a12.38,12.38,0,0,1,1.75-2.77Z"/><path class="cls-108" d="M878.25,428.87c-6.77,13.17-2.19,18.75-6.54,29.4s-10.59,9.45-19.26,24.55a77.3,77.3,0,0,0-6.39,14.38c.46.48,1,1,1.55,1.48.39.35,1,.84,1.9,1.53a49.83,49.83,0,0,0,4.18,2.79c5.4-.85,14.34-3.19,20.83-10.71a24.07,24.07,0,0,0,3-4.09c3.31-5.74,3.25-11.36,10.25-25.61,5.29-10.76,6.2-11.65,6.7-16.42,1.25-11.79-4.89-24.56-9.84-24.5C882,421.7,880.13,425.22,878.25,428.87Z"/><path class="cls-109" d="M880.59,425.22a25.73,25.73,0,0,0-2.71,15.59c1.19,8.69,6.42,14.55,7.71,16.11,6.06,7.4,9.51,24.43-1.38,66.37,2.5,1.1,13,11.53,14.59,4.63,2.14-9.42,6-72.43,5.91,1,0,1,1.94.21,2.95.29A66.29,66.29,0,0,0,932,526.58,67.7,67.7,0,0,0,959.89,510a132.53,132.53,0,0,1-19.67-32.69,135.39,135.39,0,0,1-9.68-64.63c-5.15-1.73-21.23-6.42-36.53,1C890.2,415.5,884.27,418.47,880.59,425.22Z"/><path class="cls-110" d="M1003.93,479.3l-98.27,39.57a5,5,0,0,1-6.49-2.77l-22.24-55.84a5,5,0,0,1,2.76-6.49L978,414.2a5,5,0,0,1,6.49,2.77l22.24,55.84A5,5,0,0,1,1003.93,479.3Z"/><path class="cls-111" d="M1005.78,479.88,907.5,519.45a5,5,0,0,1-6.49-2.77l-22.24-55.83a5,5,0,0,1,2.77-6.5l98.27-39.57a5,5,0,0,1,6.49,2.77l22.24,55.84A5,5,0,0,1,1005.78,479.88Z"/><path class="cls-22" d="M921.71,466.82a11.45,11.45,0,0,1,10.78,9.94A9.16,9.16,0,0,1,932,481l11.86,5.48a21.31,21.31,0,0,0,1-9.51c-1.42-12.3-12.43-22.53-24.64-22.79h-.1l1.47,12.68Z"/><path class="cls-112" d="M932,481a8.27,8.27,0,0,1-8,5.45,11.44,11.44,0,0,1-10.84-9.94,8.36,8.36,0,0,1,8.49-9.65l-1.47-12.68c-12.25-.22-21.11,9.7-19.67,22.15s12.68,22.69,24.95,22.78a18.91,18.91,0,0,0,18.45-12.63Z"/><path class="cls-113" d="M992,448.44l-41,16.79a.38.38,0,0,1-.5-.22l-1.58-3.9a.4.4,0,0,1,.21-.5l41-16.72a.38.38,0,0,1,.49.21l1.55,3.85A.37.37,0,0,1,992,448.44Z"/><path class="cls-113" d="M988.54,440.15l-41,16.78a.38.38,0,0,1-.49-.21l-1.58-3.91a.38.38,0,0,1,.21-.5l41-16.72a.37.37,0,0,1,.48.21l1.56,3.86A.37.37,0,0,1,988.54,440.15Z"/><path class="cls-113" d="M998.74,465.56l-41,16.78a.39.39,0,0,1-.5-.21l-1.57-3.91a.38.38,0,0,1,.2-.5l41-16.72a.37.37,0,0,1,.48.21l1.56,3.86A.39.39,0,0,1,998.74,465.56Z"/><path class="cls-113" d="M995.28,457.26l-41,16.78a.37.37,0,0,1-.49-.21l-1.58-3.91a.37.37,0,0,1,.21-.49l41-16.73a.37.37,0,0,1,.48.22l1.56,3.85A.37.37,0,0,1,995.28,457.26Z"/><path class="cls-114" d="M952.57,493.45l-.54,1.64a27.93,27.93,0,0,0-2,4.36c-.51,1.72-.17,3,1.46,3.83s2.83-1.08,3.89-2.7c.64-1,.47-2.86.2-4.36a12.3,12.3,0,0,1,.27-3.27Z"/><path class="cls-115" d="M916.25,414.23c3.2-4.51,13.47-1.85,14.82-1.49,9.89,2.67,15.75,10,24.21,20.82,6.53,8.37,9.84,12.55,11.57,19.23,2.71,10.46.32,19.54-.88,24.09a52.65,52.65,0,0,1-7.88,17,22,22,0,0,1-4.13.42,22.85,22.85,0,0,1-3.84-.3,48.61,48.61,0,0,1-6.45-16.43c-.89-4.63-.64-7.13-.91-13.64-.55-13.37-.82-20.05-2.6-23.32-5.84-10.76-19.62-7-23.74-17.95C916.07,421.74,914.17,417.16,916.25,414.23Z"/><path class="cls-116" d="M953.68,580.26a103.49,103.49,0,0,1-15.24-7.14,36.86,36.86,0,0,0-1.64,11.69,79.83,79.83,0,0,0,17.64.17C954.19,583.41,953.93,581.84,953.68,580.26Z"/><path class="cls-117" d="M953.14,581.21l.54-1a1,1,0,0,1,1.45.63c.46,1.22,3.09,7.57,3.23,10.44-.69,1.73-2.64.27-3.05-.9s-1.8-5.52-1.8-5.52Z"/><path class="cls-72" d="M907.54,352.7a30.54,30.54,0,0,1,9.09,6.54,31.24,31.24,0,0,1,7.26,12.08c.7,2.28,3.24,10.46-.14,17.89-5.5,12.12-24,16.23-23.89,16.46,0,0,.62-.11.63-.35,0-.74-5.79-.78-10.72-2.67-4.71-1.8-7.27-5-12.77-11-5-5.53-7.58-8.3-8.57-11.79-2.44-8.63,2.58-18.67,9.46-24.22,7.3-5.89,15.8-5.68,18.17-5.62A29.58,29.58,0,0,1,907.54,352.7Z"/><path class="cls-118" d="M901.3,399.83c0,1.36,0,8.61,3.27,9.8.7.26,1.27.09,4.39.17,1.78.05,3.23.14,4.16.22a23.1,23.1,0,0,1-1.13,4.75c-4,11.28-17,19.12-21.38,16.29-2.29-1.47-2.46-5.88-2.54-7.71a15.47,15.47,0,0,1,1-6.17c1.61-1.17,3.25-2.34,4.94-3.51,1.1-.77,2.19-1.52,3.28-2.25-.07-1.39-.15-2.78-.22-4.16Z"/><path class="cls-119" d="M902.7,402.51s0,6-4.75,7.9c-4.26,1.74-9.86-8.27-8.17-11.52a6,6,0,0,1,3.88-2.65c1.14-.21,5.9-.24,7.25,3.5.4-1.18,1.2-1.95,2-2a1.63,1.63,0,0,1,.81.27C904.84,398.83,904.53,400.65,902.7,402.51Z"/></g></g></svg>