<svg id="Capa_1" data-name="Capa 1" xmlns="http://www.w3.org/2000/svg" viewBox="0 0 595.28 841.89"><defs><style>.cls-1,.cls-2{fill:none;stroke:#575756;stroke-miterlimit:10;}.cls-1{stroke-width:0.75px;}.cls-2{stroke-width:0.25px;}.cls-3{fill:#396592;}.cls-4{fill:#3f77b5;}.cls-5{fill:#e5a33a;}.cls-6{fill:#62a9dd;}.cls-7{fill:#568346;}.cls-8{fill:#456b46;}.cls-9{fill:#d87c2a;}.cls-10{fill:#b0cd4d;}.cls-11{fill:#d45f30;}.cls-12{fill:#d56031;}.cls-13{fill:#d87c2b;}.cls-14{fill:#b1cd4d;}.cls-15{fill:#e5a33b;}</style></defs><circle class="cls-1" cx="297.64" cy="409.56" r="266.04"/><circle class="cls-2" cx="297.64" cy="409.56" r="259.57"/><polygon class="cls-3" points="297.64 429.34 351.54 392.9 297.64 356.46 297.64 429.34"/><polygon class="cls-4" points="297.64 429.34 243.74 392.9 297.64 356.46 297.64 429.34"/><polygon class="cls-5" points="351.54 465.77 297.64 429.34 351.54 392.9 351.54 465.77"/><polygon class="cls-6" points="243.74 465.77 297.64 429.34 243.74 392.9 243.74 465.77"/><polygon class="cls-7" points="297.64 502.21 351.54 465.77 297.64 429.34 297.64 502.21"/><polygon class="cls-8" points="297.64 502.21 243.74 465.77 297.64 429.34 297.64 502.21"/><polygon class="cls-9" points="243.74 538.64 297.64 502.21 243.74 465.77 243.74 538.64"/><polygon class="cls-10" points="351.54 538.64 297.64 502.21 351.54 465.77 351.54 538.64"/><polygon class="cls-11" points="297.64 575.08 351.54 538.64 297.64 502.21 297.64 575.08"/><polygon class="cls-5" points="297.64 575.08 243.74 538.64 297.64 502.21 297.64 575.08"/><polygon class="cls-12" points="297.64 244.04 297.64 313.22 447.09 278.63 297.64 244.04"/><polygon class="cls-13" points="297.64 244.04 297.64 313.22 148.18 278.63 297.64 244.04"/><polygon class="cls-14" points="447.09 278.63 447.09 347.81 297.64 313.22 447.09 278.63"/><polygon class="cls-15" points="148.18 278.6 148.18 347.78 297.64 313.19 148.18 278.6"/></svg>